<?xml version="1.0" encoding="UTF-8" standalone="no" ?>
<!DOCTYPE svg PUBLIC "-//W3C//DTD SVG 1.1//EN" "http://www.w3.org/Graphics/SVG/1.1/DTD/svg11.dtd">
<svg xmlns="http://www.w3.org/2000/svg" xmlns:xlink="http://www.w3.org/1999/xlink" version="1.1" width="1080" height="1080" viewBox="0 0 1080 1080" xml:space="preserve">
<desc>Created with Fabric.js 5.2.4</desc>
<defs>
</defs>
<g transform="matrix(1 0 0 1 540 540)" id="685244fa-8912-4b98-be0c-c3f36f9f1883"  >
<rect style="stroke: none; stroke-width: 1; stroke-dasharray: none; stroke-linecap: butt; stroke-dashoffset: 0; stroke-linejoin: miter; stroke-miterlimit: 4; fill: rgb(255,255,255); fill-rule: nonzero; opacity: 1; visibility: hidden;" vector-effect="non-scaling-stroke"  x="-540" y="-540" rx="0" ry="0" width="1080" height="1080" />
</g>
<g transform="matrix(1 0 0 1 540 540)" id="a73af279-eda8-4149-b3e7-5eba4e0d687b"  >
</g>
<g transform="matrix(1 0 0 1 540 540)"  >
<g style="" vector-effect="non-scaling-stroke"   >
		<g transform="matrix(2.06 0 0 2.06 0 0.23)"  >
<path style="stroke: none; stroke-width: 1; stroke-dasharray: none; stroke-linecap: butt; stroke-dashoffset: 0; stroke-linejoin: miter; stroke-miterlimit: 4; fill: rgb(255,121,59); fill-rule: nonzero; opacity: 1;" vector-effect="non-scaling-stroke"  transform=" translate(-194.11, -194.22)" d="M 160.109 182.619 C 160.90900000000002 189.419 154.109 194.219 148.109 190.619 C 126.10900000000001 177.819 115.30900000000001 154.219 100.909 133.81900000000002 C 77.709 170.61900000000003 60.10900000000001 206.21900000000002 60.10900000000001 244.21900000000002 C 60.10900000000001 321.41900000000004 114.909 380.21900000000005 192.109 380.21900000000005 C 269.309 380.21900000000005 328.10900000000004 321.41900000000004 328.10900000000004 244.21900000000005 C 328.10900000000004 147.41900000000004 226.90900000000005 130.61900000000006 228.10900000000004 8.219000000000051 C 187.309 37.019 148.909 101.419 160.109 182.619 z" stroke-linecap="round" />
</g>
		<g transform="matrix(2.06 0 0 2.06 0 0)"  >
<path style="stroke: none; stroke-width: 1; stroke-dasharray: none; stroke-linecap: butt; stroke-dashoffset: 0; stroke-linejoin: miter; stroke-miterlimit: 4; fill: rgb(198,73,15); fill-rule: nonzero; opacity: 1;" vector-effect="non-scaling-stroke"  transform=" translate(-194.11, -194.11)" d="M 192.109 388.219 C 110.909 388.219 52.10900000000001 327.819 52.10900000000001 244.219 C 52.10900000000001 202.219 72.50900000000001 164.219 94.10900000000001 129.41899999999998 C 95.709 127.01899999999998 98.10900000000001 125.81899999999999 100.50900000000001 125.81899999999999 C 103.30900000000001 125.81899999999999 105.70900000000002 127.01899999999999 107.30900000000001 129.01899999999998 C 110.909 133.819 114.10900000000001 139.01899999999998 117.30900000000001 144.21899999999997 C 127.30900000000001 159.81899999999996 136.90900000000002 174.61899999999997 152.109 183.41899999999998 L 152.109 183.41899999999998 C 140.50900000000001 100.61899999999999 179.709 32.218999999999994 223.30900000000003 1.4189999999999827 C 225.70900000000003 -0.18100000000001737 228.90900000000002 -0.5810000000000173 231.70900000000003 1.0189999999999828 C 234.50900000000004 2.2189999999999825 236.10900000000004 5.018999999999982 236.10900000000004 8.218999999999983 C 235.30900000000003 70.21899999999998 262.509 104.21899999999998 288.509 136.619 C 312.10900000000004 165.819 336.10900000000004 195.81900000000002 336.10900000000004 244.219 C 336.109 326.219 274.109 388.219 192.109 388.219 z M 101.309 148.619 C 83.309 178.219 68.109 210.219 68.109 244.219 C 68.109 318.219 120.109 372.219 192.10899999999998 372.219 C 264.909 372.219 320.109 317.019 320.109 244.219 C 320.109 201.41899999999998 299.709 176.219 276.109 146.619 C 251.70899999999997 116.219 224.509 82.219 220.509 24.619 C 186.10899999999998 55.819 158.509 113.019 168.10899999999998 181.419 L 168.10899999999998 181.419 C 168.909 187.81900000000002 166.10899999999998 193.81900000000002 160.909 197.019 C 155.709 200.219 149.309 200.219 144.10899999999998 197.019 C 125.70899999999997 186.219 114.90899999999998 169.019 104.10899999999998 152.619 C 102.909 151.419 102.109 150.219 101.309 148.619 z" stroke-linecap="round" />
</g>
		<g transform="matrix(2.06 0 0 2.06 195.77 148.6)"  >
<path style="stroke: none; stroke-width: 1; stroke-dasharray: none; stroke-linecap: butt; stroke-dashoffset: 0; stroke-linejoin: miter; stroke-miterlimit: 4; fill: rgb(255,121,59); fill-rule: nonzero; opacity: 1;" vector-effect="non-scaling-stroke"  transform=" translate(-289.11, -266.22)" d="M 278.109 304.219 C 292.109 282.61899999999997 300.109 256.61899999999997 300.109 228.219" stroke-linecap="round" />
</g>
		<g transform="matrix(2.06 0 0 2.06 195.72 148.6)"  >
<path style="stroke: none; stroke-width: 1; stroke-dasharray: none; stroke-linecap: butt; stroke-dashoffset: 0; stroke-linejoin: miter; stroke-miterlimit: 4; fill: rgb(198,73,15); fill-rule: nonzero; opacity: 1;" vector-effect="non-scaling-stroke"  transform=" translate(-289.08, -266.22)" d="M 278.109 312.219 C 276.50899999999996 312.219 274.909 311.819 273.709 311.019 C 270.109 308.619 268.909 303.819 271.309 299.819 C 284.90900000000005 279.019 292.10900000000004 254.21900000000002 292.10900000000004 228.21900000000002 C 292.10900000000004 223.81900000000002 295.70900000000006 220.21900000000002 300.10900000000004 220.21900000000002 C 304.509 220.21900000000002 308.10900000000004 223.81900000000002 308.10900000000004 228.21900000000002 C 308.10900000000004 257.41900000000004 300.10900000000004 285.019 284.90900000000005 308.619 C 283.309 311.019 280.909 312.219 278.109 312.219 z" stroke-linecap="round" />
</g>
		<g transform="matrix(2.06 0 0 2.06 131.47 276.36)"  >
<path style="stroke: none; stroke-width: 1; stroke-dasharray: none; stroke-linecap: butt; stroke-dashoffset: 0; stroke-linejoin: miter; stroke-miterlimit: 4; fill: rgb(255,121,59); fill-rule: nonzero; opacity: 1;" vector-effect="non-scaling-stroke"  transform=" translate(-257.91, -328.22)" d="M 253.709 332.219 C 256.509 329.819 259.709 327.019 262.109 324.219" stroke-linecap="round" />
</g>
		<g transform="matrix(2.06 0 0 2.06 131.47 276.49)"  >
<path style="stroke: none; stroke-width: 1; stroke-dasharray: none; stroke-linecap: butt; stroke-dashoffset: 0; stroke-linejoin: miter; stroke-miterlimit: 4; fill: rgb(198,73,15); fill-rule: nonzero; opacity: 1;" vector-effect="non-scaling-stroke"  transform=" translate(-257.91, -328.28)" d="M 253.709 340.219 C 251.309 340.219 249.309 339.419 247.709 337.419 C 244.909 334.219 245.309 329.019 248.50900000000001 326.219 C 250.90900000000002 323.819 254.109 321.419 256.10900000000004 319.019 C 258.90900000000005 315.819 264.10900000000004 315.419 267.309 318.219 C 270.509 321.019 270.90900000000005 326.219 268.10900000000004 329.419 C 265.309 332.61899999999997 261.70900000000006 335.81899999999996 258.90900000000005 338.219 C 257.309 339.419 255.709 340.219 253.709 340.219 z" stroke-linecap="round" />
</g>
</g>
</g>
<g transform="matrix(0.38 0 0 0.38 514.03 682.45)"  >
<g style="" vector-effect="non-scaling-stroke"   >
		<g transform="matrix(1.56 0 0 1.56 0 0)"  >
<path style="stroke: none; stroke-width: 1; stroke-dasharray: none; stroke-linecap: butt; stroke-dashoffset: 0; stroke-linejoin: miter; stroke-miterlimit: 4; fill: rgb(64,89,107); fill-rule: nonzero; opacity: 1;" vector-effect="non-scaling-stroke"  transform=" translate(-256, -256)" d="M 448.298 248.352 L 271.996 248.352 L 271.996 171.638 C 271.996 162.802 264.832 155.638 255.99599999999998 155.638 C 247.15999999999997 155.638 239.99599999999998 162.802 239.99599999999998 171.638 L 239.99599999999998 248.352 L 63.702 248.352 C 54.866 248.352 47.702 255.516 47.702 264.352 L 47.702 340.36199999999997 C 47.702 349.198 54.866 356.36199999999997 63.702 356.36199999999997 C 72.538 356.36199999999997 79.702 349.198 79.702 340.36199999999997 L 79.702 280.352 L 239.995 280.352 L 239.995 340.36199999999997 C 239.995 349.198 247.159 356.36199999999997 255.995 356.36199999999997 C 264.831 356.36199999999997 271.995 349.198 271.995 340.36199999999997 L 271.995 280.352 L 432.297 280.352 L 432.297 340.36199999999997 C 432.297 349.198 439.461 356.36199999999997 448.297 356.36199999999997 C 457.13300000000004 356.36199999999997 464.297 349.198 464.297 340.36199999999997 L 464.297 264.352 C 464.298 255.516 457.134 248.352 448.298 248.352 z" stroke-linecap="round" />
</g>
		<g transform="matrix(1.56 0 0 1.56 162.73 0)"  >
<path style="stroke: none; stroke-width: 1; stroke-dasharray: none; stroke-linecap: butt; stroke-dashoffset: 0; stroke-linejoin: miter; stroke-miterlimit: 4; fill: rgb(54,76,92); fill-rule: nonzero; opacity: 1;" vector-effect="non-scaling-stroke"  transform=" translate(-360.15, -256)" d="M 448.298 248.352 L 271.996 248.352 L 271.996 171.638 C 271.996 162.803 264.834 155.64000000000001 255.99999999999997 155.638 L 255.99999999999997 356.36 C 264.83399999999995 356.358 271.996 349.195 271.996 340.36 L 271.996 280.351 L 432.298 280.351 L 432.298 340.361 C 432.298 349.197 439.462 356.361 448.298 356.361 C 457.134 356.361 464.298 349.197 464.298 340.361 L 464.298 264.351 C 464.298 255.516 457.134 248.352 448.298 248.352 z" stroke-linecap="round" />
</g>
		<g transform="matrix(1.56 0 0 1.56 0 -206.35)"  >
<path style="stroke: none; stroke-width: 1; stroke-dasharray: none; stroke-linecap: butt; stroke-dashoffset: 0; stroke-linejoin: miter; stroke-miterlimit: 4; fill: rgb(255,209,92); fill-rule: nonzero; opacity: 1;" vector-effect="non-scaling-stroke"  transform=" translate(-256, -123.94)" d="M 399.105 187.638 L 112.89500000000004 187.638 C 104.05900000000004 187.638 96.89500000000004 180.47400000000002 96.89500000000004 171.638 L 96.89500000000004 76.235 C 96.89500000000004 67.399 104.05900000000004 60.235 112.89500000000004 60.235 L 399.105 60.235 C 407.94100000000003 60.235 415.105 67.399 415.105 76.235 L 415.105 171.639 C 415.105 180.475 407.941 187.638 399.105 187.638 z" stroke-linecap="round" />
</g>
		<g transform="matrix(1.56 0 0 1.56 0 206.35)"  >
<path style="stroke: none; stroke-width: 1; stroke-dasharray: none; stroke-linecap: butt; stroke-dashoffset: 0; stroke-linejoin: miter; stroke-miterlimit: 4; fill: rgb(76,219,196); fill-rule: nonzero; opacity: 1;" vector-effect="non-scaling-stroke"  transform=" translate(-256, -388.06)" d="M 303.702 451.765 L 208.298 451.765 C 199.462 451.765 192.298 444.601 192.298 435.765 L 192.298 340.361 C 192.298 331.525 199.462 324.361 208.298 324.361 L 303.702 324.361 C 312.538 324.361 319.702 331.525 319.702 340.361 L 319.702 435.765 C 319.702 444.602 312.539 451.765 303.702 451.765 z" stroke-linecap="round" />
</g>
		<g transform="matrix(1.56 0 0 1.56 -300.47 206.35)"  >
<path style="stroke: none; stroke-width: 1; stroke-dasharray: none; stroke-linecap: butt; stroke-dashoffset: 0; stroke-linejoin: miter; stroke-miterlimit: 4; fill: rgb(76,219,196); fill-rule: nonzero; opacity: 1;" vector-effect="non-scaling-stroke"  transform=" translate(-63.7, -388.06)" d="M 111.404 451.765 L 16 451.765 C 7.164 451.765 0 444.601 0 435.765 L 0 340.361 C 0 331.525 7.164 324.361 16 324.361 L 111.404 324.361 C 120.24 324.361 127.404 331.525 127.404 340.361 L 127.404 435.765 C 127.404 444.602 120.241 451.765 111.404 451.765 z" stroke-linecap="round" />
</g>
		<g transform="matrix(1.56 0 0 1.56 300.47 206.35)"  >
<path style="stroke: none; stroke-width: 1; stroke-dasharray: none; stroke-linecap: butt; stroke-dashoffset: 0; stroke-linejoin: miter; stroke-miterlimit: 4; fill: rgb(76,219,196); fill-rule: nonzero; opacity: 1;" vector-effect="non-scaling-stroke"  transform=" translate(-448.3, -388.06)" d="M 496 451.765 L 400.596 451.765 C 391.76 451.765 384.596 444.601 384.596 435.765 L 384.596 340.361 C 384.596 331.525 391.76 324.361 400.596 324.361 L 496 324.361 C 504.836 324.361 512 331.525 512 340.361 L 512 435.765 C 512 444.602 504.836 451.765 496 451.765 z" stroke-linecap="round" />
</g>
		<g transform="matrix(1.56 0 0 1.56 124.3 -206.35)"  >
<path style="stroke: none; stroke-width: 1; stroke-dasharray: none; stroke-linecap: butt; stroke-dashoffset: 0; stroke-linejoin: miter; stroke-miterlimit: 4; fill: rgb(248,182,76); fill-rule: nonzero; opacity: 1;" vector-effect="non-scaling-stroke"  transform=" translate(-335.55, -123.94)" d="M 399.105 60.235 L 256 60.235 L 256 187.639 L 399.105 187.639 C 407.94100000000003 187.639 415.105 180.47500000000002 415.105 171.639 L 415.105 76.235 C 415.105 67.398 407.941 60.235 399.105 60.235 z" stroke-linecap="round" />
</g>
		<g transform="matrix(1.56 0 0 1.56 49.77 206.35)"  >
<path style="stroke: none; stroke-width: 1; stroke-dasharray: none; stroke-linecap: butt; stroke-dashoffset: 0; stroke-linejoin: miter; stroke-miterlimit: 4; fill: rgb(90,194,173); fill-rule: nonzero; opacity: 1;" vector-effect="non-scaling-stroke"  transform=" translate(-287.85, -388.06)" d="M 303.702 324.362 L 256 324.362 L 256 451.766 L 303.702 451.766 C 312.538 451.766 319.702 444.60200000000003 319.702 435.766 L 319.702 340.362 C 319.702 331.525 312.539 324.362 303.702 324.362 z" stroke-linecap="round" />
</g>
		<g transform="matrix(1.56 0 0 1.56 -250.7 206.35)"  >
<path style="stroke: none; stroke-width: 1; stroke-dasharray: none; stroke-linecap: butt; stroke-dashoffset: 0; stroke-linejoin: miter; stroke-miterlimit: 4; fill: rgb(90,194,173); fill-rule: nonzero; opacity: 1;" vector-effect="non-scaling-stroke"  transform=" translate(-95.55, -388.06)" d="M 111.404 324.362 L 63.702 324.362 L 63.702 451.766 L 111.404 451.766 C 120.24 451.766 127.404 444.60200000000003 127.404 435.766 L 127.404 340.362 C 127.404 331.525 120.241 324.362 111.404 324.362 z" stroke-linecap="round" />
</g>
		<g transform="matrix(1.56 0 0 1.56 350.23 206.35)"  >
<path style="stroke: none; stroke-width: 1; stroke-dasharray: none; stroke-linecap: butt; stroke-dashoffset: 0; stroke-linejoin: miter; stroke-miterlimit: 4; fill: rgb(90,194,173); fill-rule: nonzero; opacity: 1;" vector-effect="non-scaling-stroke"  transform=" translate(-480.15, -388.06)" d="M 496 324.362 L 448.298 324.362 L 448.298 451.766 L 496 451.766 C 504.836 451.766 512 444.60200000000003 512 435.766 L 512 340.362 C 512 331.525 504.836 324.362 496 324.362 z" stroke-linecap="round" />
</g>
</g>
</g>
</svg>