<?xml version="1.0" encoding="UTF-8" standalone="no"?>
<!DOCTYPE svg PUBLIC "-//W3C//DTD SVG 1.1//EN"
 "http://www.w3.org/Graphics/SVG/1.1/DTD/svg11.dtd">
<!-- Generated by graphviz version 14.0.5 (20251129.0259)
 -->
<!-- Title: GCN Pages: 1 -->
<svg width="3600pt" height="432pt"
 viewBox="0.00 0.00 3600.00 432.00" xmlns="http://www.w3.org/2000/svg" xmlns:xlink="http://www.w3.org/1999/xlink">
<g id="graph0" class="graph" transform="scale(2.63688 2.63688) rotate(0) translate(4 159.75)">
<title>GCN</title>
<polygon fill="white" stroke="none" points="-4,4 -4,-159.75 1361.25,-159.75 1361.25,4 -4,4"/>
<g id="clust1" class="cluster">
<title>cluster_2</title>
<polygon fill="none" stroke="black" stroke-dasharray="5,2" points="134.25,-63.75 134.25,-147.75 665.5,-147.75 665.5,-63.75 134.25,-63.75"/>
<text xml:space="preserve" text-anchor="middle" x="169.25" y="-132.35" font-family="Times New Roman,serif" font-size="12.00">GCNLayer</text>
</g>
<g id="clust2" class="cluster">
<title>cluster_3</title>
<polygon fill="none" stroke="black" stroke-dasharray="5,2" points="685.5,-63.75 685.5,-147.75 1349.25,-147.75 1349.25,-63.75 685.5,-63.75"/>
<text xml:space="preserve" text-anchor="middle" x="720.5" y="-132.35" font-family="Times New Roman,serif" font-size="12.00">GCNLayer</text>
</g>
<!-- 0 -->
<g id="node1" class="node">
<title>0</title>
<polygon fill="lightyellow" stroke="none" points="106.25,-112.5 0,-112.5 0,-77 106.25,-77 106.25,-112.5"/>
<polygon fill="none" stroke="black" points="0,-77 0,-112.5 61.75,-112.5 61.75,-77 0,-77"/>
<text xml:space="preserve" text-anchor="start" x="5" y="-98" font-family="Linux libertine" font-size="10.00">input&#45;tensor</text>
<text xml:space="preserve" text-anchor="start" x="14.38" y="-85.25" font-family="Linux libertine" font-size="10.00">depth:0</text>
<polygon fill="none" stroke="black" points="61.75,-77 61.75,-112.5 106.25,-112.5 106.25,-77 61.75,-77"/>
<text xml:space="preserve" text-anchor="start" x="66.75" y="-91.62" font-family="Linux libertine" font-size="10.00">(10, 16)</text>
</g>
<!-- 2 -->
<g id="node3" class="node">
<title>2</title>
<polygon fill="#c1ffc1" stroke="none" points="276.5,-117.5 142.25,-117.5 142.25,-72 276.5,-72 276.5,-117.5"/>
<polygon fill="none" stroke="black" points="142.25,-72 142.25,-117.5 185.25,-117.5 185.25,-72 142.25,-72"/>
<text xml:space="preserve" text-anchor="start" x="150.25" y="-98" font-family="Linux libertine" font-size="10.00">Linear</text>
<text xml:space="preserve" text-anchor="start" x="147.25" y="-85.25" font-family="Linux libertine" font-size="10.00">depth:2</text>
<polygon fill="none" stroke="black" points="185.25,-94.75 185.25,-117.5 229,-117.5 229,-94.75 185.25,-94.75"/>
<text xml:space="preserve" text-anchor="start" x="194.75" y="-103" font-family="Linux libertine" font-size="10.00">input:</text>
<polygon fill="none" stroke="black" points="229,-94.75 229,-117.5 276.5,-117.5 276.5,-94.75 229,-94.75"/>
<text xml:space="preserve" text-anchor="start" x="234" y="-103" font-family="Linux libertine" font-size="10.00">(10, 16) </text>
<polygon fill="none" stroke="black" points="185.25,-72 185.25,-94.75 229,-94.75 229,-72 185.25,-72"/>
<text xml:space="preserve" text-anchor="start" x="190.25" y="-80.25" font-family="Linux libertine" font-size="10.00">output: </text>
<polygon fill="none" stroke="black" points="229,-72 229,-94.75 276.5,-94.75 276.5,-72 229,-72"/>
<text xml:space="preserve" text-anchor="start" x="234" y="-80.25" font-family="Linux libertine" font-size="10.00">(10, 32) </text>
</g>
<!-- 0&#45;&gt;2 -->
<g id="edge1" class="edge">
<title>0&#45;&gt;2</title>
<path fill="none" stroke="black" d="M106.02,-94.75C106.02,-94.75 130.89,-94.75 130.89,-94.75"/>
<polygon fill="black" stroke="black" points="130.89,-98.25 140.89,-94.75 130.89,-91.25 130.89,-98.25"/>
</g>
<!-- 1 -->
<g id="node2" class="node">
<title>1</title>
<polygon fill="lightyellow" stroke="none" points="262.5,-35.5 156.25,-35.5 156.25,0 262.5,0 262.5,-35.5"/>
<polygon fill="none" stroke="black" points="156.25,0 156.25,-35.5 218,-35.5 218,0 156.25,0"/>
<text xml:space="preserve" text-anchor="start" x="161.25" y="-21" font-family="Linux libertine" font-size="10.00">input&#45;tensor</text>
<text xml:space="preserve" text-anchor="start" x="170.62" y="-8.25" font-family="Linux libertine" font-size="10.00">depth:0</text>
<polygon fill="none" stroke="black" points="218,0 218,-35.5 262.5,-35.5 262.5,0 218,0"/>
<text xml:space="preserve" text-anchor="start" x="223" y="-14.62" font-family="Linux libertine" font-size="10.00">(10, 10)</text>
</g>
<!-- 3 -->
<g id="node4" class="node">
<title>3</title>
<polygon fill="aliceblue" stroke="none" points="487.25,-117.5 312.5,-117.5 312.5,-72 487.25,-72 487.25,-117.5"/>
<polygon fill="none" stroke="black" points="312.5,-72 312.5,-117.5 355.5,-117.5 355.5,-72 312.5,-72"/>
<text xml:space="preserve" text-anchor="start" x="317.88" y="-98" font-family="Linux libertine" font-size="10.00">matmul</text>
<text xml:space="preserve" text-anchor="start" x="317.5" y="-85.25" font-family="Linux libertine" font-size="10.00">depth:2</text>
<polygon fill="none" stroke="black" points="355.5,-94.75 355.5,-117.5 399.25,-117.5 399.25,-94.75 355.5,-94.75"/>
<text xml:space="preserve" text-anchor="start" x="365" y="-103" font-family="Linux libertine" font-size="10.00">input:</text>
<polygon fill="none" stroke="black" points="399.25,-94.75 399.25,-117.5 487.25,-117.5 487.25,-94.75 399.25,-94.75"/>
<text xml:space="preserve" text-anchor="start" x="404.25" y="-103" font-family="Linux libertine" font-size="10.00">(10, 10), (10, 32) </text>
<polygon fill="none" stroke="black" points="355.5,-72 355.5,-94.75 399.25,-94.75 399.25,-72 355.5,-72"/>
<text xml:space="preserve" text-anchor="start" x="360.5" y="-80.25" font-family="Linux libertine" font-size="10.00">output: </text>
<polygon fill="none" stroke="black" points="399.25,-72 399.25,-94.75 487.25,-94.75 487.25,-72 399.25,-72"/>
<text xml:space="preserve" text-anchor="start" x="424.5" y="-80.25" font-family="Linux libertine" font-size="10.00">(10, 32) </text>
</g>
<!-- 1&#45;&gt;3 -->
<g id="edge2" class="edge">
<title>1&#45;&gt;3</title>
<path fill="none" stroke="black" d="M262.29,-23.67C318.78,-23.67 400.25,-23.67 400.25,-23.67 400.25,-23.67 400.25,-60.75 400.25,-60.75"/>
<polygon fill="black" stroke="black" points="396.75,-60.75 400.25,-70.75 403.75,-60.75 396.75,-60.75"/>
</g>
<!-- 6 -->
<g id="node7" class="node">
<title>6</title>
<polygon fill="aliceblue" stroke="none" points="1033.25,-117.5 863.75,-117.5 863.75,-72 1033.25,-72 1033.25,-117.5"/>
<polygon fill="none" stroke="black" points="863.75,-72 863.75,-117.5 906.75,-117.5 906.75,-72 863.75,-72"/>
<text xml:space="preserve" text-anchor="start" x="869.12" y="-98" font-family="Linux libertine" font-size="10.00">matmul</text>
<text xml:space="preserve" text-anchor="start" x="868.75" y="-85.25" font-family="Linux libertine" font-size="10.00">depth:2</text>
<polygon fill="none" stroke="black" points="906.75,-94.75 906.75,-117.5 950.5,-117.5 950.5,-94.75 906.75,-94.75"/>
<text xml:space="preserve" text-anchor="start" x="916.25" y="-103" font-family="Linux libertine" font-size="10.00">input:</text>
<polygon fill="none" stroke="black" points="950.5,-94.75 950.5,-117.5 1033.25,-117.5 1033.25,-94.75 950.5,-94.75"/>
<text xml:space="preserve" text-anchor="start" x="955.5" y="-103" font-family="Linux libertine" font-size="10.00">(10, 10), (10, 2) </text>
<polygon fill="none" stroke="black" points="906.75,-72 906.75,-94.75 950.5,-94.75 950.5,-72 906.75,-72"/>
<text xml:space="preserve" text-anchor="start" x="911.75" y="-80.25" font-family="Linux libertine" font-size="10.00">output: </text>
<polygon fill="none" stroke="black" points="950.5,-72 950.5,-94.75 1033.25,-94.75 1033.25,-72 950.5,-72"/>
<text xml:space="preserve" text-anchor="start" x="975.75" y="-80.25" font-family="Linux libertine" font-size="10.00">(10, 2) </text>
</g>
<!-- 1&#45;&gt;6 -->
<g id="edge6" class="edge">
<title>1&#45;&gt;6</title>
<path fill="none" stroke="black" d="M262.22,-11.83C431.33,-11.83 948.25,-11.83 948.25,-11.83 948.25,-11.83 948.25,-60.58 948.25,-60.58"/>
<polygon fill="black" stroke="black" points="944.75,-60.58 948.25,-70.58 951.75,-60.58 944.75,-60.58"/>
</g>
<!-- 2&#45;&gt;3 -->
<g id="edge3" class="edge">
<title>2&#45;&gt;3</title>
<path fill="none" stroke="black" d="M276.27,-94.75C276.27,-94.75 301.23,-94.75 301.23,-94.75"/>
<polygon fill="black" stroke="black" points="301.23,-98.25 311.23,-94.75 301.23,-91.25 301.23,-98.25"/>
</g>
<!-- 4 -->
<g id="node5" class="node">
<title>4</title>
<polygon fill="aliceblue" stroke="none" points="657.5,-117.5 523.25,-117.5 523.25,-72 657.5,-72 657.5,-117.5"/>
<polygon fill="none" stroke="black" points="523.25,-72 523.25,-117.5 566.25,-117.5 566.25,-72 523.25,-72"/>
<text xml:space="preserve" text-anchor="start" x="536.5" y="-98" font-family="Linux libertine" font-size="10.00">relu</text>
<text xml:space="preserve" text-anchor="start" x="528.25" y="-85.25" font-family="Linux libertine" font-size="10.00">depth:2</text>
<polygon fill="none" stroke="black" points="566.25,-94.75 566.25,-117.5 610,-117.5 610,-94.75 566.25,-94.75"/>
<text xml:space="preserve" text-anchor="start" x="575.75" y="-103" font-family="Linux libertine" font-size="10.00">input:</text>
<polygon fill="none" stroke="black" points="610,-94.75 610,-117.5 657.5,-117.5 657.5,-94.75 610,-94.75"/>
<text xml:space="preserve" text-anchor="start" x="615" y="-103" font-family="Linux libertine" font-size="10.00">(10, 32) </text>
<polygon fill="none" stroke="black" points="566.25,-72 566.25,-94.75 610,-94.75 610,-72 566.25,-72"/>
<text xml:space="preserve" text-anchor="start" x="571.25" y="-80.25" font-family="Linux libertine" font-size="10.00">output: </text>
<polygon fill="none" stroke="black" points="610,-72 610,-94.75 657.5,-94.75 657.5,-72 610,-72"/>
<text xml:space="preserve" text-anchor="start" x="615" y="-80.25" font-family="Linux libertine" font-size="10.00">(10, 32) </text>
</g>
<!-- 3&#45;&gt;4 -->
<g id="edge4" class="edge">
<title>3&#45;&gt;4</title>
<path fill="none" stroke="black" d="M487.04,-94.75C487.04,-94.75 511.99,-94.75 511.99,-94.75"/>
<polygon fill="black" stroke="black" points="511.99,-98.25 521.99,-94.75 511.99,-91.25 511.99,-98.25"/>
</g>
<!-- 5 -->
<g id="node6" class="node">
<title>5</title>
<polygon fill="#c1ffc1" stroke="none" points="827.75,-117.5 693.5,-117.5 693.5,-72 827.75,-72 827.75,-117.5"/>
<polygon fill="none" stroke="black" points="693.5,-72 693.5,-117.5 736.5,-117.5 736.5,-72 693.5,-72"/>
<text xml:space="preserve" text-anchor="start" x="701.5" y="-98" font-family="Linux libertine" font-size="10.00">Linear</text>
<text xml:space="preserve" text-anchor="start" x="698.5" y="-85.25" font-family="Linux libertine" font-size="10.00">depth:2</text>
<polygon fill="none" stroke="black" points="736.5,-94.75 736.5,-117.5 780.25,-117.5 780.25,-94.75 736.5,-94.75"/>
<text xml:space="preserve" text-anchor="start" x="746" y="-103" font-family="Linux libertine" font-size="10.00">input:</text>
<polygon fill="none" stroke="black" points="780.25,-94.75 780.25,-117.5 827.75,-117.5 827.75,-94.75 780.25,-94.75"/>
<text xml:space="preserve" text-anchor="start" x="785.25" y="-103" font-family="Linux libertine" font-size="10.00">(10, 32) </text>
<polygon fill="none" stroke="black" points="736.5,-72 736.5,-94.75 780.25,-94.75 780.25,-72 736.5,-72"/>
<text xml:space="preserve" text-anchor="start" x="741.5" y="-80.25" font-family="Linux libertine" font-size="10.00">output: </text>
<polygon fill="none" stroke="black" points="780.25,-72 780.25,-94.75 827.75,-94.75 827.75,-72 780.25,-72"/>
<text xml:space="preserve" text-anchor="start" x="787.88" y="-80.25" font-family="Linux libertine" font-size="10.00">(10, 2) </text>
</g>
<!-- 4&#45;&gt;5 -->
<g id="edge5" class="edge">
<title>4&#45;&gt;5</title>
<path fill="none" stroke="black" d="M657.17,-94.75C657.17,-94.75 682.23,-94.75 682.23,-94.75"/>
<polygon fill="black" stroke="black" points="682.23,-98.25 692.23,-94.75 682.23,-91.25 682.23,-98.25"/>
</g>
<!-- 5&#45;&gt;6 -->
<g id="edge7" class="edge">
<title>5&#45;&gt;6</title>
<path fill="none" stroke="black" d="M827.66,-94.75C827.66,-94.75 852.25,-94.75 852.25,-94.75"/>
<polygon fill="black" stroke="black" points="852.25,-98.25 862.25,-94.75 852.25,-91.25 852.25,-98.25"/>
</g>
<!-- 7 -->
<g id="node8" class="node">
<title>7</title>
<polygon fill="aliceblue" stroke="none" points="1198.25,-117.5 1069.25,-117.5 1069.25,-72 1198.25,-72 1198.25,-117.5"/>
<polygon fill="none" stroke="black" points="1069.25,-72 1069.25,-117.5 1112.25,-117.5 1112.25,-72 1069.25,-72"/>
<text xml:space="preserve" text-anchor="start" x="1082.5" y="-98" font-family="Linux libertine" font-size="10.00">relu</text>
<text xml:space="preserve" text-anchor="start" x="1074.25" y="-85.25" font-family="Linux libertine" font-size="10.00">depth:2</text>
<polygon fill="none" stroke="black" points="1112.25,-94.75 1112.25,-117.5 1156,-117.5 1156,-94.75 1112.25,-94.75"/>
<text xml:space="preserve" text-anchor="start" x="1121.75" y="-103" font-family="Linux libertine" font-size="10.00">input:</text>
<polygon fill="none" stroke="black" points="1156,-94.75 1156,-117.5 1198.25,-117.5 1198.25,-94.75 1156,-94.75"/>
<text xml:space="preserve" text-anchor="start" x="1161" y="-103" font-family="Linux libertine" font-size="10.00">(10, 2) </text>
<polygon fill="none" stroke="black" points="1112.25,-72 1112.25,-94.75 1156,-94.75 1156,-72 1112.25,-72"/>
<text xml:space="preserve" text-anchor="start" x="1117.25" y="-80.25" font-family="Linux libertine" font-size="10.00">output: </text>
<polygon fill="none" stroke="black" points="1156,-72 1156,-94.75 1198.25,-94.75 1198.25,-72 1156,-72"/>
<text xml:space="preserve" text-anchor="start" x="1161" y="-80.25" font-family="Linux libertine" font-size="10.00">(10, 2) </text>
</g>
<!-- 6&#45;&gt;7 -->
<g id="edge8" class="edge">
<title>6&#45;&gt;7</title>
<path fill="none" stroke="black" d="M1032.99,-94.75C1032.99,-94.75 1057.84,-94.75 1057.84,-94.75"/>
<polygon fill="black" stroke="black" points="1057.84,-98.25 1067.84,-94.75 1057.83,-91.25 1057.84,-98.25"/>
</g>
<!-- 8 -->
<g id="node9" class="node">
<title>8</title>
<polygon fill="lightyellow" stroke="none" points="1341.25,-112.5 1234.25,-112.5 1234.25,-77 1341.25,-77 1341.25,-112.5"/>
<polygon fill="none" stroke="black" points="1234.25,-77 1234.25,-112.5 1302,-112.5 1302,-77 1234.25,-77"/>
<text xml:space="preserve" text-anchor="start" x="1239.25" y="-98" font-family="Linux libertine" font-size="10.00">output&#45;tensor</text>
<text xml:space="preserve" text-anchor="start" x="1251.62" y="-85.25" font-family="Linux libertine" font-size="10.00">depth:0</text>
<polygon fill="none" stroke="black" points="1302,-77 1302,-112.5 1341.25,-112.5 1341.25,-77 1302,-77"/>
<text xml:space="preserve" text-anchor="start" x="1307" y="-91.62" font-family="Linux libertine" font-size="10.00">(10, 2)</text>
</g>
<!-- 7&#45;&gt;8 -->
<g id="edge9" class="edge">
<title>7&#45;&gt;8</title>
<path fill="none" stroke="black" d="M1198.17,-94.75C1198.17,-94.75 1222.8,-94.75 1222.8,-94.75"/>
<polygon fill="black" stroke="black" points="1222.8,-98.25 1232.8,-94.75 1222.8,-91.25 1222.8,-98.25"/>
</g>
</g>
</svg>
