<?xml version="1.0" encoding="UTF-8" standalone="no"?>
<!DOCTYPE svg PUBLIC "-//W3C//DTD SVG 1.1//EN"
 "http://www.w3.org/Graphics/SVG/1.1/DTD/svg11.dtd">
<!-- Generated by graphviz version 14.0.5 (20251129.0259)
 -->
<!-- Title: ViT_B_16 Pages: 1 -->
<svg width="3600pt" height="169pt"
 viewBox="0.00 0.00 3600.00 169.00" xmlns="http://www.w3.org/2000/svg" xmlns:xlink="http://www.w3.org/1999/xlink">
<g id="graph0" class="graph" transform="scale(1.56794 1.56794) rotate(0) translate(4 104)">
<title>ViT_B_16</title>
<polygon fill="white" stroke="none" points="-4,4 -4,-104 2292,-104 2292,4 -4,4"/>
<g id="clust1" class="cluster">
<title>cluster_2</title>
<polygon fill="none" stroke="black" stroke-dasharray="5,2" points="962.25,-8 962.25,-92 1738.75,-92 1738.75,-8 962.25,-8"/>
<text xml:space="preserve" text-anchor="middle" x="990.12" y="-76.6" font-family="Times New Roman,serif" font-size="12.00">Encoder</text>
</g>
<g id="clust2" class="cluster">
<title>cluster_3</title>
<polygon fill="none" stroke="black" stroke-dasharray="5,2" points="1971,-8 1971,-92 2280,-92 2280,-8 1971,-8"/>
<text xml:space="preserve" text-anchor="middle" x="2003.75" y="-76.6" font-family="Times New Roman,serif" font-size="12.00">Sequential</text>
</g>
<!-- 0 -->
<g id="node1" class="node">
<title>0</title>
<polygon fill="lightyellow" stroke="none" points="139.25,-56.75 0,-56.75 0,-21.25 139.25,-21.25 139.25,-56.75"/>
<polygon fill="none" stroke="black" points="0,-21.25 0,-56.75 61.75,-56.75 61.75,-21.25 0,-21.25"/>
<text xml:space="preserve" text-anchor="start" x="5" y="-42.25" font-family="Linux libertine" font-size="10.00">input&#45;tensor</text>
<text xml:space="preserve" text-anchor="start" x="14.38" y="-29.5" font-family="Linux libertine" font-size="10.00">depth:0</text>
<polygon fill="none" stroke="black" points="61.75,-21.25 61.75,-56.75 139.25,-56.75 139.25,-21.25 61.75,-21.25"/>
<text xml:space="preserve" text-anchor="start" x="66.75" y="-35.88" font-family="Linux libertine" font-size="10.00">(1, 3, 224, 224)</text>
</g>
<!-- 1 -->
<g id="node2" class="node">
<title>1</title>
<polygon fill="#c1ffc1" stroke="none" points="342.5,-61.75 175.25,-61.75 175.25,-16.25 342.5,-16.25 342.5,-61.75"/>
<polygon fill="none" stroke="black" points="175.25,-16.25 175.25,-61.75 218.25,-61.75 218.25,-16.25 175.25,-16.25"/>
<text xml:space="preserve" text-anchor="start" x="180.62" y="-42.25" font-family="Linux libertine" font-size="10.00">Conv2d</text>
<text xml:space="preserve" text-anchor="start" x="180.25" y="-29.5" font-family="Linux libertine" font-size="10.00">depth:1</text>
<polygon fill="none" stroke="black" points="218.25,-39 218.25,-61.75 262,-61.75 262,-39 218.25,-39"/>
<text xml:space="preserve" text-anchor="start" x="227.75" y="-47.25" font-family="Linux libertine" font-size="10.00">input:</text>
<polygon fill="none" stroke="black" points="262,-39 262,-61.75 342.5,-61.75 342.5,-39 262,-39"/>
<text xml:space="preserve" text-anchor="start" x="267" y="-47.25" font-family="Linux libertine" font-size="10.00">(1, 3, 224, 224) </text>
<polygon fill="none" stroke="black" points="218.25,-16.25 218.25,-39 262,-39 262,-16.25 218.25,-16.25"/>
<text xml:space="preserve" text-anchor="start" x="223.25" y="-24.5" font-family="Linux libertine" font-size="10.00">output: </text>
<polygon fill="none" stroke="black" points="262,-16.25 262,-39 342.5,-39 342.5,-16.25 262,-16.25"/>
<text xml:space="preserve" text-anchor="start" x="267" y="-24.5" font-family="Linux libertine" font-size="10.00">(1, 768, 14, 14) </text>
</g>
<!-- 0&#45;&gt;1 -->
<g id="edge1" class="edge">
<title>0&#45;&gt;1</title>
<path fill="none" stroke="black" d="M139.02,-39C139.02,-39 163.84,-39 163.84,-39"/>
<polygon fill="black" stroke="black" points="163.84,-42.5 173.84,-39 163.84,-35.5 163.84,-42.5"/>
</g>
<!-- 2 -->
<g id="node3" class="node">
<title>2</title>
<polygon fill="aliceblue" stroke="none" points="547.25,-61.75 378.5,-61.75 378.5,-16.25 547.25,-16.25 547.25,-61.75"/>
<polygon fill="none" stroke="black" points="378.5,-16.25 378.5,-61.75 423,-61.75 423,-16.25 378.5,-16.25"/>
<text xml:space="preserve" text-anchor="start" x="383.5" y="-42.25" font-family="Linux libertine" font-size="10.00">reshape</text>
<text xml:space="preserve" text-anchor="start" x="384.25" y="-29.5" font-family="Linux libertine" font-size="10.00">depth:1</text>
<polygon fill="none" stroke="black" points="423,-39 423,-61.75 466.75,-61.75 466.75,-39 423,-39"/>
<text xml:space="preserve" text-anchor="start" x="432.5" y="-47.25" font-family="Linux libertine" font-size="10.00">input:</text>
<polygon fill="none" stroke="black" points="466.75,-39 466.75,-61.75 547.25,-61.75 547.25,-39 466.75,-39"/>
<text xml:space="preserve" text-anchor="start" x="471.75" y="-47.25" font-family="Linux libertine" font-size="10.00">(1, 768, 14, 14) </text>
<polygon fill="none" stroke="black" points="423,-16.25 423,-39 466.75,-39 466.75,-16.25 423,-16.25"/>
<text xml:space="preserve" text-anchor="start" x="428" y="-24.5" font-family="Linux libertine" font-size="10.00">output: </text>
<polygon fill="none" stroke="black" points="466.75,-16.25 466.75,-39 547.25,-39 547.25,-16.25 466.75,-16.25"/>
<text xml:space="preserve" text-anchor="start" x="477.38" y="-24.5" font-family="Linux libertine" font-size="10.00">(1, 768, 196) </text>
</g>
<!-- 1&#45;&gt;2 -->
<g id="edge2" class="edge">
<title>1&#45;&gt;2</title>
<path fill="none" stroke="black" d="M342.44,-39C342.44,-39 367.27,-39 367.27,-39"/>
<polygon fill="black" stroke="black" points="367.27,-42.5 377.27,-39 367.27,-35.5 367.27,-42.5"/>
</g>
<!-- 3 -->
<g id="node4" class="node">
<title>3</title>
<polygon fill="aliceblue" stroke="none" points="742.25,-61.75 583.25,-61.75 583.25,-16.25 742.25,-16.25 742.25,-61.75"/>
<polygon fill="none" stroke="black" points="583.25,-16.25 583.25,-61.75 629.25,-61.75 629.25,-16.25 583.25,-16.25"/>
<text xml:space="preserve" text-anchor="start" x="588.25" y="-42.25" font-family="Linux libertine" font-size="10.00">permute</text>
<text xml:space="preserve" text-anchor="start" x="589.75" y="-29.5" font-family="Linux libertine" font-size="10.00">depth:1</text>
<polygon fill="none" stroke="black" points="629.25,-39 629.25,-61.75 673,-61.75 673,-39 629.25,-39"/>
<text xml:space="preserve" text-anchor="start" x="638.75" y="-47.25" font-family="Linux libertine" font-size="10.00">input:</text>
<polygon fill="none" stroke="black" points="673,-39 673,-61.75 742.25,-61.75 742.25,-39 673,-39"/>
<text xml:space="preserve" text-anchor="start" x="678" y="-47.25" font-family="Linux libertine" font-size="10.00">(1, 768, 196) </text>
<polygon fill="none" stroke="black" points="629.25,-16.25 629.25,-39 673,-39 673,-16.25 629.25,-16.25"/>
<text xml:space="preserve" text-anchor="start" x="634.25" y="-24.5" font-family="Linux libertine" font-size="10.00">output: </text>
<polygon fill="none" stroke="black" points="673,-16.25 673,-39 742.25,-39 742.25,-16.25 673,-16.25"/>
<text xml:space="preserve" text-anchor="start" x="678" y="-24.5" font-family="Linux libertine" font-size="10.00">(1, 196, 768) </text>
</g>
<!-- 2&#45;&gt;3 -->
<g id="edge3" class="edge">
<title>2&#45;&gt;3</title>
<path fill="none" stroke="black" d="M547.06,-39C547.06,-39 571.93,-39 571.93,-39"/>
<polygon fill="black" stroke="black" points="571.93,-42.5 581.93,-39 571.93,-35.5 571.93,-42.5"/>
</g>
<!-- 4 -->
<g id="node5" class="node">
<title>4</title>
<polygon fill="aliceblue" stroke="none" points="934.25,-61.75 778.25,-61.75 778.25,-16.25 934.25,-16.25 934.25,-61.75"/>
<polygon fill="none" stroke="black" points="778.25,-16.25 778.25,-61.75 821.25,-61.75 821.25,-16.25 778.25,-16.25"/>
<text xml:space="preserve" text-anchor="start" x="793.38" y="-42.25" font-family="Linux libertine" font-size="10.00">cat</text>
<text xml:space="preserve" text-anchor="start" x="783.25" y="-29.5" font-family="Linux libertine" font-size="10.00">depth:1</text>
<polygon fill="none" stroke="black" points="821.25,-39 821.25,-61.75 865,-61.75 865,-39 821.25,-39"/>
<text xml:space="preserve" text-anchor="start" x="830.75" y="-47.25" font-family="Linux libertine" font-size="10.00">input:</text>
<polygon fill="none" stroke="black" points="865,-39 865,-61.75 934.25,-61.75 934.25,-39 865,-39"/>
<text xml:space="preserve" text-anchor="start" x="870" y="-47.25" font-family="Linux libertine" font-size="10.00">(1, 196, 768) </text>
<polygon fill="none" stroke="black" points="821.25,-16.25 821.25,-39 865,-39 865,-16.25 821.25,-16.25"/>
<text xml:space="preserve" text-anchor="start" x="826.25" y="-24.5" font-family="Linux libertine" font-size="10.00">output: </text>
<polygon fill="none" stroke="black" points="865,-16.25 865,-39 934.25,-39 934.25,-16.25 865,-16.25"/>
<text xml:space="preserve" text-anchor="start" x="870" y="-24.5" font-family="Linux libertine" font-size="10.00">(1, 197, 768) </text>
</g>
<!-- 3&#45;&gt;4 -->
<g id="edge4" class="edge">
<title>3&#45;&gt;4</title>
<path fill="none" stroke="black" d="M742.01,-39C742.01,-39 766.85,-39 766.85,-39"/>
<polygon fill="black" stroke="black" points="766.85,-42.5 776.85,-39 766.85,-35.5 766.85,-42.5"/>
</g>
<!-- 5 -->
<g id="node6" class="node">
<title>5</title>
<polygon fill="aliceblue" stroke="none" points="1126.25,-61.75 970.25,-61.75 970.25,-16.25 1126.25,-16.25 1126.25,-61.75"/>
<polygon fill="none" stroke="black" points="970.25,-16.25 970.25,-61.75 1013.25,-61.75 1013.25,-16.25 970.25,-16.25"/>
<text xml:space="preserve" text-anchor="start" x="983.88" y="-42.25" font-family="Linux libertine" font-size="10.00">add</text>
<text xml:space="preserve" text-anchor="start" x="975.25" y="-29.5" font-family="Linux libertine" font-size="10.00">depth:2</text>
<polygon fill="none" stroke="black" points="1013.25,-39 1013.25,-61.75 1057,-61.75 1057,-39 1013.25,-39"/>
<text xml:space="preserve" text-anchor="start" x="1022.75" y="-47.25" font-family="Linux libertine" font-size="10.00">input:</text>
<polygon fill="none" stroke="black" points="1057,-39 1057,-61.75 1126.25,-61.75 1126.25,-39 1057,-39"/>
<text xml:space="preserve" text-anchor="start" x="1062" y="-47.25" font-family="Linux libertine" font-size="10.00">(1, 197, 768) </text>
<polygon fill="none" stroke="black" points="1013.25,-16.25 1013.25,-39 1057,-39 1057,-16.25 1013.25,-16.25"/>
<text xml:space="preserve" text-anchor="start" x="1018.25" y="-24.5" font-family="Linux libertine" font-size="10.00">output: </text>
<polygon fill="none" stroke="black" points="1057,-16.25 1057,-39 1126.25,-39 1126.25,-16.25 1057,-16.25"/>
<text xml:space="preserve" text-anchor="start" x="1062" y="-24.5" font-family="Linux libertine" font-size="10.00">(1, 197, 768) </text>
</g>
<!-- 4&#45;&gt;5 -->
<g id="edge5" class="edge">
<title>4&#45;&gt;5</title>
<path fill="none" stroke="black" d="M934.07,-39C934.07,-39 958.81,-39 958.81,-39"/>
<polygon fill="black" stroke="black" points="958.81,-42.5 968.81,-39 958.81,-35.5 958.81,-42.5"/>
</g>
<!-- 6 -->
<g id="node7" class="node">
<title>6</title>
<polygon fill="#c1ffc1" stroke="none" points="1319.75,-61.75 1162.25,-61.75 1162.25,-16.25 1319.75,-16.25 1319.75,-61.75"/>
<polygon fill="none" stroke="black" points="1162.25,-16.25 1162.25,-61.75 1206.75,-61.75 1206.75,-16.25 1162.25,-16.25"/>
<text xml:space="preserve" text-anchor="start" x="1167.25" y="-42.25" font-family="Linux libertine" font-size="10.00">Dropout</text>
<text xml:space="preserve" text-anchor="start" x="1168" y="-29.5" font-family="Linux libertine" font-size="10.00">depth:2</text>
<polygon fill="none" stroke="black" points="1206.75,-39 1206.75,-61.75 1250.5,-61.75 1250.5,-39 1206.75,-39"/>
<text xml:space="preserve" text-anchor="start" x="1216.25" y="-47.25" font-family="Linux libertine" font-size="10.00">input:</text>
<polygon fill="none" stroke="black" points="1250.5,-39 1250.5,-61.75 1319.75,-61.75 1319.75,-39 1250.5,-39"/>
<text xml:space="preserve" text-anchor="start" x="1255.5" y="-47.25" font-family="Linux libertine" font-size="10.00">(1, 197, 768) </text>
<polygon fill="none" stroke="black" points="1206.75,-16.25 1206.75,-39 1250.5,-39 1250.5,-16.25 1206.75,-16.25"/>
<text xml:space="preserve" text-anchor="start" x="1211.75" y="-24.5" font-family="Linux libertine" font-size="10.00">output: </text>
<polygon fill="none" stroke="black" points="1250.5,-16.25 1250.5,-39 1319.75,-39 1319.75,-16.25 1250.5,-16.25"/>
<text xml:space="preserve" text-anchor="start" x="1255.5" y="-24.5" font-family="Linux libertine" font-size="10.00">(1, 197, 768) </text>
</g>
<!-- 5&#45;&gt;6 -->
<g id="edge6" class="edge">
<title>5&#45;&gt;6</title>
<path fill="none" stroke="black" d="M1126.09,-39C1126.09,-39 1151.04,-39 1151.04,-39"/>
<polygon fill="black" stroke="black" points="1151.04,-42.5 1161.04,-39 1151.04,-35.5 1151.04,-42.5"/>
</g>
<!-- 7 -->
<g id="node8" class="node">
<title>7</title>
<polygon fill="#c1ffc1" stroke="none" points="1523,-61.75 1355.75,-61.75 1355.75,-16.25 1523,-16.25 1523,-61.75"/>
<polygon fill="none" stroke="black" points="1355.75,-16.25 1355.75,-61.75 1410,-61.75 1410,-16.25 1355.75,-16.25"/>
<text xml:space="preserve" text-anchor="start" x="1360.75" y="-42.25" font-family="Linux libertine" font-size="10.00">Sequential</text>
<text xml:space="preserve" text-anchor="start" x="1366.38" y="-29.5" font-family="Linux libertine" font-size="10.00">depth:2</text>
<polygon fill="none" stroke="black" points="1410,-39 1410,-61.75 1453.75,-61.75 1453.75,-39 1410,-39"/>
<text xml:space="preserve" text-anchor="start" x="1419.5" y="-47.25" font-family="Linux libertine" font-size="10.00">input:</text>
<polygon fill="none" stroke="black" points="1453.75,-39 1453.75,-61.75 1523,-61.75 1523,-39 1453.75,-39"/>
<text xml:space="preserve" text-anchor="start" x="1458.75" y="-47.25" font-family="Linux libertine" font-size="10.00">(1, 197, 768) </text>
<polygon fill="none" stroke="black" points="1410,-16.25 1410,-39 1453.75,-39 1453.75,-16.25 1410,-16.25"/>
<text xml:space="preserve" text-anchor="start" x="1415" y="-24.5" font-family="Linux libertine" font-size="10.00">output: </text>
<polygon fill="none" stroke="black" points="1453.75,-16.25 1453.75,-39 1523,-39 1523,-16.25 1453.75,-16.25"/>
<text xml:space="preserve" text-anchor="start" x="1458.75" y="-24.5" font-family="Linux libertine" font-size="10.00">(1, 197, 768) </text>
</g>
<!-- 6&#45;&gt;7 -->
<g id="edge7" class="edge">
<title>6&#45;&gt;7</title>
<path fill="none" stroke="black" d="M1319.69,-39C1319.69,-39 1344.38,-39 1344.38,-39"/>
<polygon fill="black" stroke="black" points="1344.38,-42.5 1354.38,-39 1344.38,-35.5 1344.38,-42.5"/>
</g>
<!-- 8 -->
<g id="node9" class="node">
<title>8</title>
<polygon fill="#c1ffc1" stroke="none" points="1730.75,-61.75 1559,-61.75 1559,-16.25 1730.75,-16.25 1730.75,-61.75"/>
<polygon fill="none" stroke="black" points="1559,-16.25 1559,-61.75 1617.75,-61.75 1617.75,-16.25 1559,-16.25"/>
<text xml:space="preserve" text-anchor="start" x="1564" y="-42.25" font-family="Linux libertine" font-size="10.00">LayerNorm</text>
<text xml:space="preserve" text-anchor="start" x="1571.88" y="-29.5" font-family="Linux libertine" font-size="10.00">depth:2</text>
<polygon fill="none" stroke="black" points="1617.75,-39 1617.75,-61.75 1661.5,-61.75 1661.5,-39 1617.75,-39"/>
<text xml:space="preserve" text-anchor="start" x="1627.25" y="-47.25" font-family="Linux libertine" font-size="10.00">input:</text>
<polygon fill="none" stroke="black" points="1661.5,-39 1661.5,-61.75 1730.75,-61.75 1730.75,-39 1661.5,-39"/>
<text xml:space="preserve" text-anchor="start" x="1666.5" y="-47.25" font-family="Linux libertine" font-size="10.00">(1, 197, 768) </text>
<polygon fill="none" stroke="black" points="1617.75,-16.25 1617.75,-39 1661.5,-39 1661.5,-16.25 1617.75,-16.25"/>
<text xml:space="preserve" text-anchor="start" x="1622.75" y="-24.5" font-family="Linux libertine" font-size="10.00">output: </text>
<polygon fill="none" stroke="black" points="1661.5,-16.25 1661.5,-39 1730.75,-39 1730.75,-16.25 1661.5,-16.25"/>
<text xml:space="preserve" text-anchor="start" x="1666.5" y="-24.5" font-family="Linux libertine" font-size="10.00">(1, 197, 768) </text>
</g>
<!-- 7&#45;&gt;8 -->
<g id="edge8" class="edge">
<title>7&#45;&gt;8</title>
<path fill="none" stroke="black" d="M1522.96,-39C1522.96,-39 1547.51,-39 1547.51,-39"/>
<polygon fill="black" stroke="black" points="1547.51,-42.5 1557.51,-39 1547.51,-35.5 1547.51,-42.5"/>
</g>
<!-- 9 -->
<g id="node10" class="node">
<title>9</title>
<polygon fill="aliceblue" stroke="none" points="1943,-61.75 1766.75,-61.75 1766.75,-16.25 1943,-16.25 1943,-61.75"/>
<polygon fill="none" stroke="black" points="1766.75,-16.25 1766.75,-61.75 1830,-61.75 1830,-16.25 1766.75,-16.25"/>
<text xml:space="preserve" text-anchor="start" x="1771.75" y="-42.25" font-family="Linux libertine" font-size="10.00">__getitem__</text>
<text xml:space="preserve" text-anchor="start" x="1781.88" y="-29.5" font-family="Linux libertine" font-size="10.00">depth:1</text>
<polygon fill="none" stroke="black" points="1830,-39 1830,-61.75 1873.75,-61.75 1873.75,-39 1830,-39"/>
<text xml:space="preserve" text-anchor="start" x="1839.5" y="-47.25" font-family="Linux libertine" font-size="10.00">input:</text>
<polygon fill="none" stroke="black" points="1873.75,-39 1873.75,-61.75 1943,-61.75 1943,-39 1873.75,-39"/>
<text xml:space="preserve" text-anchor="start" x="1878.75" y="-47.25" font-family="Linux libertine" font-size="10.00">(1, 197, 768) </text>
<polygon fill="none" stroke="black" points="1830,-16.25 1830,-39 1873.75,-39 1873.75,-16.25 1830,-16.25"/>
<text xml:space="preserve" text-anchor="start" x="1835" y="-24.5" font-family="Linux libertine" font-size="10.00">output: </text>
<polygon fill="none" stroke="black" points="1873.75,-16.25 1873.75,-39 1943,-39 1943,-16.25 1873.75,-16.25"/>
<text xml:space="preserve" text-anchor="start" x="1889.62" y="-24.5" font-family="Linux libertine" font-size="10.00">(1, 768) </text>
</g>
<!-- 8&#45;&gt;9 -->
<g id="edge9" class="edge">
<title>8&#45;&gt;9</title>
<path fill="none" stroke="black" d="M1730.59,-39C1730.59,-39 1755.53,-39 1755.53,-39"/>
<polygon fill="black" stroke="black" points="1755.53,-42.5 1765.53,-39 1755.53,-35.5 1755.53,-42.5"/>
</g>
<!-- 10 -->
<g id="node11" class="node">
<title>10</title>
<polygon fill="#c1ffc1" stroke="none" points="2118.5,-61.75 1979,-61.75 1979,-16.25 2118.5,-16.25 2118.5,-61.75"/>
<polygon fill="none" stroke="black" points="1979,-16.25 1979,-61.75 2022,-61.75 2022,-16.25 1979,-16.25"/>
<text xml:space="preserve" text-anchor="start" x="1987" y="-42.25" font-family="Linux libertine" font-size="10.00">Linear</text>
<text xml:space="preserve" text-anchor="start" x="1984" y="-29.5" font-family="Linux libertine" font-size="10.00">depth:2</text>
<polygon fill="none" stroke="black" points="2022,-39 2022,-61.75 2065.75,-61.75 2065.75,-39 2022,-39"/>
<text xml:space="preserve" text-anchor="start" x="2031.5" y="-47.25" font-family="Linux libertine" font-size="10.00">input:</text>
<polygon fill="none" stroke="black" points="2065.75,-39 2065.75,-61.75 2118.5,-61.75 2118.5,-39 2065.75,-39"/>
<text xml:space="preserve" text-anchor="start" x="2073.38" y="-47.25" font-family="Linux libertine" font-size="10.00">(1, 768) </text>
<polygon fill="none" stroke="black" points="2022,-16.25 2022,-39 2065.75,-39 2065.75,-16.25 2022,-16.25"/>
<text xml:space="preserve" text-anchor="start" x="2027" y="-24.5" font-family="Linux libertine" font-size="10.00">output: </text>
<polygon fill="none" stroke="black" points="2065.75,-16.25 2065.75,-39 2118.5,-39 2118.5,-16.25 2065.75,-16.25"/>
<text xml:space="preserve" text-anchor="start" x="2070.75" y="-24.5" font-family="Linux libertine" font-size="10.00">(1, 1000) </text>
</g>
<!-- 9&#45;&gt;10 -->
<g id="edge10" class="edge">
<title>9&#45;&gt;10</title>
<path fill="none" stroke="black" d="M1942.74,-39C1942.74,-39 1967.69,-39 1967.69,-39"/>
<polygon fill="black" stroke="black" points="1967.69,-42.5 1977.69,-39 1967.69,-35.5 1967.69,-42.5"/>
</g>
<!-- 11 -->
<g id="node12" class="node">
<title>11</title>
<polygon fill="lightyellow" stroke="none" points="2272,-56.75 2154.5,-56.75 2154.5,-21.25 2272,-21.25 2272,-56.75"/>
<polygon fill="none" stroke="black" points="2154.5,-21.25 2154.5,-56.75 2222.25,-56.75 2222.25,-21.25 2154.5,-21.25"/>
<text xml:space="preserve" text-anchor="start" x="2159.5" y="-42.25" font-family="Linux libertine" font-size="10.00">output&#45;tensor</text>
<text xml:space="preserve" text-anchor="start" x="2171.88" y="-29.5" font-family="Linux libertine" font-size="10.00">depth:0</text>
<polygon fill="none" stroke="black" points="2222.25,-21.25 2222.25,-56.75 2272,-56.75 2272,-21.25 2222.25,-21.25"/>
<text xml:space="preserve" text-anchor="start" x="2227.25" y="-35.88" font-family="Linux libertine" font-size="10.00">(1, 1000)</text>
</g>
<!-- 10&#45;&gt;11 -->
<g id="edge11" class="edge">
<title>10&#45;&gt;11</title>
<path fill="none" stroke="black" d="M2118.04,-39C2118.04,-39 2143.2,-39 2143.2,-39"/>
<polygon fill="black" stroke="black" points="2143.2,-42.5 2153.2,-39 2143.2,-35.5 2143.2,-42.5"/>
</g>
</g>
</svg>
