<?xml version="1.0" encoding="UTF-8" standalone="no"?>
<!DOCTYPE svg PUBLIC "-//W3C//DTD SVG 1.1//EN"
 "http://www.w3.org/Graphics/SVG/1.1/DTD/svg11.dtd">
<!-- Generated by graphviz version 14.0.5 (20251129.0259)
 -->
<!-- Title: Seq2Seq_Attention Pages: 1 -->
<svg width="3600pt" height="442pt"
 viewBox="0.00 0.00 3600.00 442.00" xmlns="http://www.w3.org/2000/svg" xmlns:xlink="http://www.w3.org/1999/xlink">
<g id="graph0" class="graph" transform="scale(1.20816 1.20816) rotate(0) translate(4 361.5)">
<title>Seq2Seq_Attention</title>
<polygon fill="white" stroke="none" points="-4,4 -4,-361.5 2975.75,-361.5 2975.75,4 -4,4"/>
<!-- 0 -->
<g id="node1" class="node">
<title>0</title>
<polygon fill="lightyellow" stroke="none" points="101,-192.5 0,-192.5 0,-157 101,-157 101,-192.5"/>
<polygon fill="none" stroke="black" points="0,-157 0,-192.5 61.75,-192.5 61.75,-157 0,-157"/>
<text xml:space="preserve" text-anchor="start" x="5" y="-178" font-family="Linux libertine" font-size="10.00">input&#45;tensor</text>
<text xml:space="preserve" text-anchor="start" x="14.38" y="-165.25" font-family="Linux libertine" font-size="10.00">depth:0</text>
<polygon fill="none" stroke="black" points="61.75,-157 61.75,-192.5 101,-192.5 101,-157 61.75,-157"/>
<text xml:space="preserve" text-anchor="start" x="66.75" y="-171.62" font-family="Linux libertine" font-size="10.00">(1, 10)</text>
</g>
<!-- 2 -->
<g id="node3" class="node">
<title>2</title>
<polygon fill="#c1ffc1" stroke="none" points="296.75,-197.5 137,-197.5 137,-152 296.75,-152 296.75,-197.5"/>
<polygon fill="none" stroke="black" points="137,-152 137,-197.5 194.25,-197.5 194.25,-152 137,-152"/>
<text xml:space="preserve" text-anchor="start" x="142" y="-178" font-family="Linux libertine" font-size="10.00">Embedding</text>
<text xml:space="preserve" text-anchor="start" x="149.12" y="-165.25" font-family="Linux libertine" font-size="10.00">depth:1</text>
<polygon fill="none" stroke="black" points="194.25,-174.75 194.25,-197.5 238,-197.5 238,-174.75 194.25,-174.75"/>
<text xml:space="preserve" text-anchor="start" x="203.75" y="-183" font-family="Linux libertine" font-size="10.00">input:</text>
<polygon fill="none" stroke="black" points="238,-174.75 238,-197.5 296.75,-197.5 296.75,-174.75 238,-174.75"/>
<text xml:space="preserve" text-anchor="start" x="251.25" y="-183" font-family="Linux libertine" font-size="10.00">(1, 10) </text>
<polygon fill="none" stroke="black" points="194.25,-152 194.25,-174.75 238,-174.75 238,-152 194.25,-152"/>
<text xml:space="preserve" text-anchor="start" x="199.25" y="-160.25" font-family="Linux libertine" font-size="10.00">output: </text>
<polygon fill="none" stroke="black" points="238,-152 238,-174.75 296.75,-174.75 296.75,-152 238,-152"/>
<text xml:space="preserve" text-anchor="start" x="243" y="-160.25" font-family="Linux libertine" font-size="10.00">(1, 10, 32) </text>
</g>
<!-- 0&#45;&gt;2 -->
<g id="edge1" class="edge">
<title>0&#45;&gt;2</title>
<path fill="none" stroke="black" d="M100.87,-174.75C100.87,-174.75 125.67,-174.75 125.67,-174.75"/>
<polygon fill="black" stroke="black" points="125.67,-178.25 135.67,-174.75 125.67,-171.25 125.67,-178.25"/>
</g>
<!-- 1 -->
<g id="node2" class="node">
<title>1</title>
<polygon fill="lightyellow" stroke="none" points="267.38,-352.5 166.38,-352.5 166.38,-317 267.38,-317 267.38,-352.5"/>
<polygon fill="none" stroke="black" points="166.38,-317 166.38,-352.5 228.12,-352.5 228.12,-317 166.38,-317"/>
<text xml:space="preserve" text-anchor="start" x="171.38" y="-338" font-family="Linux libertine" font-size="10.00">input&#45;tensor</text>
<text xml:space="preserve" text-anchor="start" x="180.75" y="-325.25" font-family="Linux libertine" font-size="10.00">depth:0</text>
<polygon fill="none" stroke="black" points="228.12,-317 228.12,-352.5 267.38,-352.5 267.38,-317 228.12,-317"/>
<text xml:space="preserve" text-anchor="start" x="233.12" y="-331.62" font-family="Linux libertine" font-size="10.00">(1, 10)</text>
</g>
<!-- 4 -->
<g id="node5" class="node">
<title>4</title>
<polygon fill="aliceblue" stroke="none" points="503.38,-357.5 354.12,-357.5 354.12,-312 503.38,-312 503.38,-357.5"/>
<polygon fill="none" stroke="black" points="354.12,-312 354.12,-357.5 417.38,-357.5 417.38,-312 354.12,-312"/>
<text xml:space="preserve" text-anchor="start" x="359.12" y="-338" font-family="Linux libertine" font-size="10.00">__getitem__</text>
<text xml:space="preserve" text-anchor="start" x="369.25" y="-325.25" font-family="Linux libertine" font-size="10.00">depth:1</text>
<polygon fill="none" stroke="black" points="417.38,-334.75 417.38,-357.5 461.12,-357.5 461.12,-334.75 417.38,-334.75"/>
<text xml:space="preserve" text-anchor="start" x="426.88" y="-343" font-family="Linux libertine" font-size="10.00">input:</text>
<polygon fill="none" stroke="black" points="461.12,-334.75 461.12,-357.5 503.38,-357.5 503.38,-334.75 461.12,-334.75"/>
<text xml:space="preserve" text-anchor="start" x="466.12" y="-343" font-family="Linux libertine" font-size="10.00">(1, 10) </text>
<polygon fill="none" stroke="black" points="417.38,-312 417.38,-334.75 461.12,-334.75 461.12,-312 417.38,-312"/>
<text xml:space="preserve" text-anchor="start" x="422.38" y="-320.25" font-family="Linux libertine" font-size="10.00">output: </text>
<polygon fill="none" stroke="black" points="461.12,-312 461.12,-334.75 503.38,-334.75 503.38,-312 461.12,-312"/>
<text xml:space="preserve" text-anchor="start" x="472.88" y="-320.25" font-family="Linux libertine" font-size="10.00">(1,) </text>
</g>
<!-- 1&#45;&gt;4 -->
<g id="edge2" class="edge">
<title>1&#45;&gt;4</title>
<path fill="none" stroke="black" d="M267.36,-334.75C267.36,-334.75 342.67,-334.75 342.67,-334.75"/>
<polygon fill="black" stroke="black" points="342.67,-338.25 352.67,-334.75 342.67,-331.25 342.67,-338.25"/>
</g>
<!-- 3 -->
<g id="node4" class="node">
<title>3</title>
<polygon fill="#c1ffc1" stroke="none" points="524.75,-197.5 332.75,-197.5 332.75,-152 524.75,-152 524.75,-197.5"/>
<polygon fill="none" stroke="black" points="332.75,-152 332.75,-197.5 375.75,-197.5 375.75,-152 332.75,-152"/>
<text xml:space="preserve" text-anchor="start" x="344.5" y="-178" font-family="Linux libertine" font-size="10.00">GRU</text>
<text xml:space="preserve" text-anchor="start" x="337.75" y="-165.25" font-family="Linux libertine" font-size="10.00">depth:1</text>
<polygon fill="none" stroke="black" points="375.75,-174.75 375.75,-197.5 419.5,-197.5 419.5,-174.75 375.75,-174.75"/>
<text xml:space="preserve" text-anchor="start" x="385.25" y="-183" font-family="Linux libertine" font-size="10.00">input:</text>
<polygon fill="none" stroke="black" points="419.5,-174.75 419.5,-197.5 524.75,-197.5 524.75,-174.75 419.5,-174.75"/>
<text xml:space="preserve" text-anchor="start" x="447.75" y="-183" font-family="Linux libertine" font-size="10.00">(1, 10, 32) </text>
<polygon fill="none" stroke="black" points="375.75,-152 375.75,-174.75 419.5,-174.75 419.5,-152 375.75,-152"/>
<text xml:space="preserve" text-anchor="start" x="380.75" y="-160.25" font-family="Linux libertine" font-size="10.00">output: </text>
<polygon fill="none" stroke="black" points="419.5,-152 419.5,-174.75 524.75,-174.75 524.75,-152 419.5,-152"/>
<text xml:space="preserve" text-anchor="start" x="424.5" y="-160.25" font-family="Linux libertine" font-size="10.00">(1, 10, 64), (1, 1, 64) </text>
</g>
<!-- 2&#45;&gt;3 -->
<g id="edge3" class="edge">
<title>2&#45;&gt;3</title>
<path fill="none" stroke="black" d="M296.67,-174.75C296.67,-174.75 321.45,-174.75 321.45,-174.75"/>
<polygon fill="black" stroke="black" points="321.45,-178.25 331.45,-174.75 321.45,-171.25 321.45,-178.25"/>
</g>
<!-- 6 -->
<g id="node7" class="node">
<title>6</title>
<polygon fill="aliceblue" stroke="none" points="721.25,-275.5 560.75,-275.5 560.75,-230 721.25,-230 721.25,-275.5"/>
<polygon fill="none" stroke="black" points="560.75,-230 560.75,-275.5 624,-275.5 624,-230 560.75,-230"/>
<text xml:space="preserve" text-anchor="start" x="565.75" y="-256" font-family="Linux libertine" font-size="10.00">__getitem__</text>
<text xml:space="preserve" text-anchor="start" x="575.88" y="-243.25" font-family="Linux libertine" font-size="10.00">depth:1</text>
<polygon fill="none" stroke="black" points="624,-252.75 624,-275.5 667.75,-275.5 667.75,-252.75 624,-252.75"/>
<text xml:space="preserve" text-anchor="start" x="633.5" y="-261" font-family="Linux libertine" font-size="10.00">input:</text>
<polygon fill="none" stroke="black" points="667.75,-252.75 667.75,-275.5 721.25,-275.5 721.25,-252.75 667.75,-252.75"/>
<text xml:space="preserve" text-anchor="start" x="672.75" y="-261" font-family="Linux libertine" font-size="10.00">(1, 1, 64) </text>
<polygon fill="none" stroke="black" points="624,-230 624,-252.75 667.75,-252.75 667.75,-230 624,-230"/>
<text xml:space="preserve" text-anchor="start" x="629" y="-238.25" font-family="Linux libertine" font-size="10.00">output: </text>
<polygon fill="none" stroke="black" points="667.75,-230 667.75,-252.75 721.25,-252.75 721.25,-230 667.75,-230"/>
<text xml:space="preserve" text-anchor="start" x="678.38" y="-238.25" font-family="Linux libertine" font-size="10.00">(1, 64) </text>
</g>
<!-- 3&#45;&gt;6 -->
<g id="edge6" class="edge">
<title>3&#45;&gt;6</title>
<path fill="none" stroke="black" d="M513.75,-197.31C513.75,-220.35 513.75,-252.75 513.75,-252.75 513.75,-252.75 549.26,-252.75 549.26,-252.75"/>
<polygon fill="black" stroke="black" points="549.26,-256.25 559.26,-252.75 549.26,-249.25 549.26,-256.25"/>
</g>
<!-- 9 -->
<g id="node10" class="node">
<title>9</title>
<polygon fill="aliceblue" stroke="none" points="1340.75,-119.5 1148.75,-119.5 1148.75,-74 1340.75,-74 1340.75,-119.5"/>
<polygon fill="none" stroke="black" points="1148.75,-74 1148.75,-119.5 1191.75,-119.5 1191.75,-74 1148.75,-74"/>
<text xml:space="preserve" text-anchor="start" x="1159.38" y="-100" font-family="Linux libertine" font-size="10.00">bmm</text>
<text xml:space="preserve" text-anchor="start" x="1153.75" y="-87.25" font-family="Linux libertine" font-size="10.00">depth:1</text>
<polygon fill="none" stroke="black" points="1191.75,-96.75 1191.75,-119.5 1235.5,-119.5 1235.5,-96.75 1191.75,-96.75"/>
<text xml:space="preserve" text-anchor="start" x="1201.25" y="-105" font-family="Linux libertine" font-size="10.00">input:</text>
<polygon fill="none" stroke="black" points="1235.5,-96.75 1235.5,-119.5 1340.75,-119.5 1340.75,-96.75 1235.5,-96.75"/>
<text xml:space="preserve" text-anchor="start" x="1240.5" y="-105" font-family="Linux libertine" font-size="10.00">(1, 10, 64), (1, 64, 1) </text>
<polygon fill="none" stroke="black" points="1191.75,-74 1191.75,-96.75 1235.5,-96.75 1235.5,-74 1191.75,-74"/>
<text xml:space="preserve" text-anchor="start" x="1196.75" y="-82.25" font-family="Linux libertine" font-size="10.00">output: </text>
<polygon fill="none" stroke="black" points="1235.5,-74 1235.5,-96.75 1340.75,-96.75 1340.75,-74 1235.5,-74"/>
<text xml:space="preserve" text-anchor="start" x="1266.38" y="-82.25" font-family="Linux libertine" font-size="10.00">(1, 10, 1) </text>
</g>
<!-- 3&#45;&gt;9 -->
<g id="edge4" class="edge">
<title>3&#45;&gt;9</title>
<path fill="none" stroke="black" d="M524.35,-163.38C739.83,-163.38 1244.75,-163.38 1244.75,-163.38 1244.75,-163.38 1244.75,-130.82 1244.75,-130.82"/>
<polygon fill="black" stroke="black" points="1248.25,-130.82 1244.75,-120.82 1241.25,-130.82 1248.25,-130.82"/>
</g>
<!-- 13 -->
<g id="node14" class="node">
<title>13</title>
<polygon fill="aliceblue" stroke="none" points="2102.75,-197.5 1910.75,-197.5 1910.75,-152 2102.75,-152 2102.75,-197.5"/>
<polygon fill="none" stroke="black" points="1910.75,-152 1910.75,-197.5 1953.75,-197.5 1953.75,-152 1910.75,-152"/>
<text xml:space="preserve" text-anchor="start" x="1921.38" y="-178" font-family="Linux libertine" font-size="10.00">bmm</text>
<text xml:space="preserve" text-anchor="start" x="1915.75" y="-165.25" font-family="Linux libertine" font-size="10.00">depth:1</text>
<polygon fill="none" stroke="black" points="1953.75,-174.75 1953.75,-197.5 1997.5,-197.5 1997.5,-174.75 1953.75,-174.75"/>
<text xml:space="preserve" text-anchor="start" x="1963.25" y="-183" font-family="Linux libertine" font-size="10.00">input:</text>
<polygon fill="none" stroke="black" points="1997.5,-174.75 1997.5,-197.5 2102.75,-197.5 2102.75,-174.75 1997.5,-174.75"/>
<text xml:space="preserve" text-anchor="start" x="2002.5" y="-183" font-family="Linux libertine" font-size="10.00">(1, 1, 10), (1, 10, 64) </text>
<polygon fill="none" stroke="black" points="1953.75,-152 1953.75,-174.75 1997.5,-174.75 1997.5,-152 1953.75,-152"/>
<text xml:space="preserve" text-anchor="start" x="1958.75" y="-160.25" font-family="Linux libertine" font-size="10.00">output: </text>
<polygon fill="none" stroke="black" points="1997.5,-152 1997.5,-174.75 2102.75,-174.75 2102.75,-152 1997.5,-152"/>
<text xml:space="preserve" text-anchor="start" x="2028.38" y="-160.25" font-family="Linux libertine" font-size="10.00">(1, 1, 64) </text>
</g>
<!-- 3&#45;&gt;13 -->
<g id="edge5" class="edge">
<title>3&#45;&gt;13</title>
<path fill="none" stroke="black" d="M524.5,-186.12C524.5,-186.12 1899.31,-186.12 1899.31,-186.12"/>
<polygon fill="black" stroke="black" points="1899.31,-189.63 1909.31,-186.13 1899.31,-182.63 1899.31,-189.63"/>
</g>
<!-- 5 -->
<g id="node6" class="node">
<title>5</title>
<polygon fill="#c1ffc1" stroke="none" points="712.62,-357.5 569.38,-357.5 569.38,-312 712.62,-312 712.62,-357.5"/>
<polygon fill="none" stroke="black" points="569.38,-312 569.38,-357.5 626.62,-357.5 626.62,-312 569.38,-312"/>
<text xml:space="preserve" text-anchor="start" x="574.38" y="-338" font-family="Linux libertine" font-size="10.00">Embedding</text>
<text xml:space="preserve" text-anchor="start" x="581.5" y="-325.25" font-family="Linux libertine" font-size="10.00">depth:1</text>
<polygon fill="none" stroke="black" points="626.62,-334.75 626.62,-357.5 670.38,-357.5 670.38,-334.75 626.62,-334.75"/>
<text xml:space="preserve" text-anchor="start" x="636.12" y="-343" font-family="Linux libertine" font-size="10.00">input:</text>
<polygon fill="none" stroke="black" points="670.38,-334.75 670.38,-357.5 712.62,-357.5 712.62,-334.75 670.38,-334.75"/>
<text xml:space="preserve" text-anchor="start" x="682.12" y="-343" font-family="Linux libertine" font-size="10.00">(1,) </text>
<polygon fill="none" stroke="black" points="626.62,-312 626.62,-334.75 670.38,-334.75 670.38,-312 626.62,-312"/>
<text xml:space="preserve" text-anchor="start" x="631.62" y="-320.25" font-family="Linux libertine" font-size="10.00">output: </text>
<polygon fill="none" stroke="black" points="670.38,-312 670.38,-334.75 712.62,-334.75 712.62,-312 670.38,-312"/>
<text xml:space="preserve" text-anchor="start" x="675.38" y="-320.25" font-family="Linux libertine" font-size="10.00">(1, 32) </text>
</g>
<!-- 4&#45;&gt;5 -->
<g id="edge7" class="edge">
<title>4&#45;&gt;5</title>
<path fill="none" stroke="black" d="M503.28,-334.75C503.28,-334.75 557.99,-334.75 557.99,-334.75"/>
<polygon fill="black" stroke="black" points="557.99,-338.25 567.99,-334.75 557.99,-331.25 557.99,-338.25"/>
</g>
<!-- 7 -->
<g id="node8" class="node">
<title>7</title>
<polygon fill="#c1ffc1" stroke="none" points="923.75,-275.5 757.25,-275.5 757.25,-230 923.75,-230 923.75,-275.5"/>
<polygon fill="none" stroke="black" points="757.25,-230 757.25,-275.5 802.5,-275.5 802.5,-230 757.25,-230"/>
<text xml:space="preserve" text-anchor="start" x="762.25" y="-256" font-family="Linux libertine" font-size="10.00">GRUCell</text>
<text xml:space="preserve" text-anchor="start" x="763.38" y="-243.25" font-family="Linux libertine" font-size="10.00">depth:1</text>
<polygon fill="none" stroke="black" points="802.5,-252.75 802.5,-275.5 846.25,-275.5 846.25,-252.75 802.5,-252.75"/>
<text xml:space="preserve" text-anchor="start" x="812" y="-261" font-family="Linux libertine" font-size="10.00">input:</text>
<polygon fill="none" stroke="black" points="846.25,-252.75 846.25,-275.5 923.75,-275.5 923.75,-252.75 846.25,-252.75"/>
<text xml:space="preserve" text-anchor="start" x="851.25" y="-261" font-family="Linux libertine" font-size="10.00">(1, 32), (1, 64) </text>
<polygon fill="none" stroke="black" points="802.5,-230 802.5,-252.75 846.25,-252.75 846.25,-230 802.5,-230"/>
<text xml:space="preserve" text-anchor="start" x="807.5" y="-238.25" font-family="Linux libertine" font-size="10.00">output: </text>
<polygon fill="none" stroke="black" points="846.25,-230 846.25,-252.75 923.75,-252.75 923.75,-230 846.25,-230"/>
<text xml:space="preserve" text-anchor="start" x="868.88" y="-238.25" font-family="Linux libertine" font-size="10.00">(1, 64) </text>
</g>
<!-- 5&#45;&gt;7 -->
<g id="edge8" class="edge">
<title>5&#45;&gt;7</title>
<path fill="none" stroke="black" d="M712.55,-334.75C769.87,-334.75 840.75,-334.75 840.75,-334.75 840.75,-334.75 840.75,-286.67 840.75,-286.67"/>
<polygon fill="black" stroke="black" points="844.25,-286.67 840.75,-276.67 837.25,-286.67 844.25,-286.67"/>
</g>
<!-- 6&#45;&gt;7 -->
<g id="edge9" class="edge">
<title>6&#45;&gt;7</title>
<path fill="none" stroke="black" d="M720.99,-252.75C720.99,-252.75 746.04,-252.75 746.04,-252.75"/>
<polygon fill="black" stroke="black" points="746.04,-256.25 756.04,-252.75 746.04,-249.25 746.04,-256.25"/>
</g>
<!-- 8 -->
<g id="node9" class="node">
<title>8</title>
<polygon fill="aliceblue" stroke="none" points="1112.75,-45.5 959.75,-45.5 959.75,0 1112.75,0 1112.75,-45.5"/>
<polygon fill="none" stroke="black" points="959.75,0 959.75,-45.5 1015.5,-45.5 1015.5,0 959.75,0"/>
<text xml:space="preserve" text-anchor="start" x="964.75" y="-26" font-family="Linux libertine" font-size="10.00">unsqueeze</text>
<text xml:space="preserve" text-anchor="start" x="971.12" y="-13.25" font-family="Linux libertine" font-size="10.00">depth:1</text>
<polygon fill="none" stroke="black" points="1015.5,-22.75 1015.5,-45.5 1059.25,-45.5 1059.25,-22.75 1015.5,-22.75"/>
<text xml:space="preserve" text-anchor="start" x="1025" y="-31" font-family="Linux libertine" font-size="10.00">input:</text>
<polygon fill="none" stroke="black" points="1059.25,-22.75 1059.25,-45.5 1112.75,-45.5 1112.75,-22.75 1059.25,-22.75"/>
<text xml:space="preserve" text-anchor="start" x="1069.88" y="-31" font-family="Linux libertine" font-size="10.00">(1, 64) </text>
<polygon fill="none" stroke="black" points="1015.5,0 1015.5,-22.75 1059.25,-22.75 1059.25,0 1015.5,0"/>
<text xml:space="preserve" text-anchor="start" x="1020.5" y="-8.25" font-family="Linux libertine" font-size="10.00">output: </text>
<polygon fill="none" stroke="black" points="1059.25,0 1059.25,-22.75 1112.75,-22.75 1112.75,0 1059.25,0"/>
<text xml:space="preserve" text-anchor="start" x="1064.25" y="-8.25" font-family="Linux libertine" font-size="10.00">(1, 64, 1) </text>
</g>
<!-- 7&#45;&gt;8 -->
<g id="edge10" class="edge">
<title>7&#45;&gt;8</title>
<path fill="none" stroke="black" d="M923.63,-249.5C966.85,-249.5 1010.75,-249.5 1010.75,-249.5 1010.75,-249.5 1010.75,-56.83 1010.75,-56.83"/>
<polygon fill="black" stroke="black" points="1014.25,-56.83 1010.75,-46.83 1007.25,-56.83 1014.25,-56.83"/>
</g>
<!-- 15 -->
<g id="node16" class="node">
<title>15</title>
<polygon fill="aliceblue" stroke="none" points="2462.75,-236.5 2317.25,-236.5 2317.25,-191 2462.75,-191 2462.75,-236.5"/>
<polygon fill="none" stroke="black" points="2317.25,-191 2317.25,-236.5 2360.25,-236.5 2360.25,-191 2317.25,-191"/>
<text xml:space="preserve" text-anchor="start" x="2332.38" y="-217" font-family="Linux libertine" font-size="10.00">cat</text>
<text xml:space="preserve" text-anchor="start" x="2322.25" y="-204.25" font-family="Linux libertine" font-size="10.00">depth:1</text>
<polygon fill="none" stroke="black" points="2360.25,-213.75 2360.25,-236.5 2404,-236.5 2404,-213.75 2360.25,-213.75"/>
<text xml:space="preserve" text-anchor="start" x="2369.75" y="-222" font-family="Linux libertine" font-size="10.00">input:</text>
<polygon fill="none" stroke="black" points="2404,-213.75 2404,-236.5 2462.75,-236.5 2462.75,-213.75 2404,-213.75"/>
<text xml:space="preserve" text-anchor="start" x="2409" y="-222" font-family="Linux libertine" font-size="10.00">2 x (1, 64) </text>
<polygon fill="none" stroke="black" points="2360.25,-191 2360.25,-213.75 2404,-213.75 2404,-191 2360.25,-191"/>
<text xml:space="preserve" text-anchor="start" x="2365.25" y="-199.25" font-family="Linux libertine" font-size="10.00">output: </text>
<polygon fill="none" stroke="black" points="2404,-191 2404,-213.75 2462.75,-213.75 2462.75,-191 2404,-191"/>
<text xml:space="preserve" text-anchor="start" x="2414.62" y="-199.25" font-family="Linux libertine" font-size="10.00">(1, 128) </text>
</g>
<!-- 7&#45;&gt;15 -->
<g id="edge11" class="edge">
<title>7&#45;&gt;15</title>
<path fill="none" stroke="black" d="M923.52,-262.5C1244.94,-262.5 2389.75,-262.5 2389.75,-262.5 2389.75,-262.5 2389.75,-247.93 2389.75,-247.93"/>
<polygon fill="black" stroke="black" points="2393.25,-247.93 2389.75,-237.93 2386.25,-247.93 2393.25,-247.93"/>
</g>
<!-- 8&#45;&gt;9 -->
<g id="edge12" class="edge">
<title>8&#45;&gt;9</title>
<path fill="none" stroke="black" d="M1061.75,-45.35C1061.75,-67.12 1061.75,-96.75 1061.75,-96.75 1061.75,-96.75 1137.45,-96.75 1137.45,-96.75"/>
<polygon fill="black" stroke="black" points="1137.45,-100.25 1147.45,-96.75 1137.45,-93.25 1137.45,-100.25"/>
</g>
<!-- 10 -->
<g id="node11" class="node">
<title>10</title>
<polygon fill="aliceblue" stroke="none" points="1519.25,-119.5 1376.75,-119.5 1376.75,-74 1519.25,-74 1519.25,-119.5"/>
<polygon fill="none" stroke="black" points="1376.75,-74 1376.75,-119.5 1422,-119.5 1422,-74 1376.75,-74"/>
<text xml:space="preserve" text-anchor="start" x="1381.75" y="-100" font-family="Linux libertine" font-size="10.00">squeeze</text>
<text xml:space="preserve" text-anchor="start" x="1382.88" y="-87.25" font-family="Linux libertine" font-size="10.00">depth:1</text>
<polygon fill="none" stroke="black" points="1422,-96.75 1422,-119.5 1465.75,-119.5 1465.75,-96.75 1422,-96.75"/>
<text xml:space="preserve" text-anchor="start" x="1431.5" y="-105" font-family="Linux libertine" font-size="10.00">input:</text>
<polygon fill="none" stroke="black" points="1465.75,-96.75 1465.75,-119.5 1519.25,-119.5 1519.25,-96.75 1465.75,-96.75"/>
<text xml:space="preserve" text-anchor="start" x="1470.75" y="-105" font-family="Linux libertine" font-size="10.00">(1, 10, 1) </text>
<polygon fill="none" stroke="black" points="1422,-74 1422,-96.75 1465.75,-96.75 1465.75,-74 1422,-74"/>
<text xml:space="preserve" text-anchor="start" x="1427" y="-82.25" font-family="Linux libertine" font-size="10.00">output: </text>
<polygon fill="none" stroke="black" points="1465.75,-74 1465.75,-96.75 1519.25,-96.75 1519.25,-74 1465.75,-74"/>
<text xml:space="preserve" text-anchor="start" x="1476.38" y="-82.25" font-family="Linux libertine" font-size="10.00">(1, 10) </text>
</g>
<!-- 9&#45;&gt;10 -->
<g id="edge13" class="edge">
<title>9&#45;&gt;10</title>
<path fill="none" stroke="black" d="M1340.72,-96.75C1340.72,-96.75 1365.52,-96.75 1365.52,-96.75"/>
<polygon fill="black" stroke="black" points="1365.52,-100.25 1375.52,-96.75 1365.52,-93.25 1365.52,-100.25"/>
</g>
<!-- 11 -->
<g id="node12" class="node">
<title>11</title>
<polygon fill="aliceblue" stroke="none" points="1685.75,-119.5 1555.25,-119.5 1555.25,-74 1685.75,-74 1685.75,-119.5"/>
<polygon fill="none" stroke="black" points="1555.25,-74 1555.25,-119.5 1599.75,-119.5 1599.75,-74 1555.25,-74"/>
<text xml:space="preserve" text-anchor="start" x="1560.25" y="-100" font-family="Linux libertine" font-size="10.00">softmax</text>
<text xml:space="preserve" text-anchor="start" x="1561" y="-87.25" font-family="Linux libertine" font-size="10.00">depth:1</text>
<polygon fill="none" stroke="black" points="1599.75,-96.75 1599.75,-119.5 1643.5,-119.5 1643.5,-96.75 1599.75,-96.75"/>
<text xml:space="preserve" text-anchor="start" x="1609.25" y="-105" font-family="Linux libertine" font-size="10.00">input:</text>
<polygon fill="none" stroke="black" points="1643.5,-96.75 1643.5,-119.5 1685.75,-119.5 1685.75,-96.75 1643.5,-96.75"/>
<text xml:space="preserve" text-anchor="start" x="1648.5" y="-105" font-family="Linux libertine" font-size="10.00">(1, 10) </text>
<polygon fill="none" stroke="black" points="1599.75,-74 1599.75,-96.75 1643.5,-96.75 1643.5,-74 1599.75,-74"/>
<text xml:space="preserve" text-anchor="start" x="1604.75" y="-82.25" font-family="Linux libertine" font-size="10.00">output: </text>
<polygon fill="none" stroke="black" points="1643.5,-74 1643.5,-96.75 1685.75,-96.75 1685.75,-74 1643.5,-74"/>
<text xml:space="preserve" text-anchor="start" x="1648.5" y="-82.25" font-family="Linux libertine" font-size="10.00">(1, 10) </text>
</g>
<!-- 10&#45;&gt;11 -->
<g id="edge14" class="edge">
<title>10&#45;&gt;11</title>
<path fill="none" stroke="black" d="M1519.16,-96.75C1519.16,-96.75 1543.8,-96.75 1543.8,-96.75"/>
<polygon fill="black" stroke="black" points="1543.8,-100.25 1553.8,-96.75 1543.8,-93.25 1543.8,-100.25"/>
</g>
<!-- 12 -->
<g id="node13" class="node">
<title>12</title>
<polygon fill="aliceblue" stroke="none" points="1874.75,-119.5 1721.75,-119.5 1721.75,-74 1874.75,-74 1874.75,-119.5"/>
<polygon fill="none" stroke="black" points="1721.75,-74 1721.75,-119.5 1777.5,-119.5 1777.5,-74 1721.75,-74"/>
<text xml:space="preserve" text-anchor="start" x="1726.75" y="-100" font-family="Linux libertine" font-size="10.00">unsqueeze</text>
<text xml:space="preserve" text-anchor="start" x="1733.12" y="-87.25" font-family="Linux libertine" font-size="10.00">depth:1</text>
<polygon fill="none" stroke="black" points="1777.5,-96.75 1777.5,-119.5 1821.25,-119.5 1821.25,-96.75 1777.5,-96.75"/>
<text xml:space="preserve" text-anchor="start" x="1787" y="-105" font-family="Linux libertine" font-size="10.00">input:</text>
<polygon fill="none" stroke="black" points="1821.25,-96.75 1821.25,-119.5 1874.75,-119.5 1874.75,-96.75 1821.25,-96.75"/>
<text xml:space="preserve" text-anchor="start" x="1831.88" y="-105" font-family="Linux libertine" font-size="10.00">(1, 10) </text>
<polygon fill="none" stroke="black" points="1777.5,-74 1777.5,-96.75 1821.25,-96.75 1821.25,-74 1777.5,-74"/>
<text xml:space="preserve" text-anchor="start" x="1782.5" y="-82.25" font-family="Linux libertine" font-size="10.00">output: </text>
<polygon fill="none" stroke="black" points="1821.25,-74 1821.25,-96.75 1874.75,-96.75 1874.75,-74 1821.25,-74"/>
<text xml:space="preserve" text-anchor="start" x="1826.25" y="-82.25" font-family="Linux libertine" font-size="10.00">(1, 1, 10) </text>
</g>
<!-- 11&#45;&gt;12 -->
<g id="edge15" class="edge">
<title>11&#45;&gt;12</title>
<path fill="none" stroke="black" d="M1685.68,-96.75C1685.68,-96.75 1710.42,-96.75 1710.42,-96.75"/>
<polygon fill="black" stroke="black" points="1710.42,-100.25 1720.42,-96.75 1710.42,-93.25 1710.42,-100.25"/>
</g>
<!-- 12&#45;&gt;13 -->
<g id="edge16" class="edge">
<title>12&#45;&gt;13</title>
<path fill="none" stroke="black" d="M1797.75,-119.31C1797.75,-142.35 1797.75,-174.75 1797.75,-174.75 1797.75,-174.75 1899.3,-174.75 1899.3,-174.75"/>
<polygon fill="black" stroke="black" points="1899.3,-178.25 1909.3,-174.75 1899.3,-171.25 1899.3,-178.25"/>
</g>
<!-- 14 -->
<g id="node15" class="node">
<title>14</title>
<polygon fill="aliceblue" stroke="none" points="2281.25,-197.5 2138.75,-197.5 2138.75,-152 2281.25,-152 2281.25,-197.5"/>
<polygon fill="none" stroke="black" points="2138.75,-152 2138.75,-197.5 2184,-197.5 2184,-152 2138.75,-152"/>
<text xml:space="preserve" text-anchor="start" x="2143.75" y="-178" font-family="Linux libertine" font-size="10.00">squeeze</text>
<text xml:space="preserve" text-anchor="start" x="2144.88" y="-165.25" font-family="Linux libertine" font-size="10.00">depth:1</text>
<polygon fill="none" stroke="black" points="2184,-174.75 2184,-197.5 2227.75,-197.5 2227.75,-174.75 2184,-174.75"/>
<text xml:space="preserve" text-anchor="start" x="2193.5" y="-183" font-family="Linux libertine" font-size="10.00">input:</text>
<polygon fill="none" stroke="black" points="2227.75,-174.75 2227.75,-197.5 2281.25,-197.5 2281.25,-174.75 2227.75,-174.75"/>
<text xml:space="preserve" text-anchor="start" x="2232.75" y="-183" font-family="Linux libertine" font-size="10.00">(1, 1, 64) </text>
<polygon fill="none" stroke="black" points="2184,-152 2184,-174.75 2227.75,-174.75 2227.75,-152 2184,-152"/>
<text xml:space="preserve" text-anchor="start" x="2189" y="-160.25" font-family="Linux libertine" font-size="10.00">output: </text>
<polygon fill="none" stroke="black" points="2227.75,-152 2227.75,-174.75 2281.25,-174.75 2281.25,-152 2227.75,-152"/>
<text xml:space="preserve" text-anchor="start" x="2238.38" y="-160.25" font-family="Linux libertine" font-size="10.00">(1, 64) </text>
</g>
<!-- 13&#45;&gt;14 -->
<g id="edge17" class="edge">
<title>13&#45;&gt;14</title>
<path fill="none" stroke="black" d="M2102.72,-174.75C2102.72,-174.75 2127.52,-174.75 2127.52,-174.75"/>
<polygon fill="black" stroke="black" points="2127.52,-178.25 2137.52,-174.75 2127.52,-171.25 2127.52,-178.25"/>
</g>
<!-- 14&#45;&gt;15 -->
<g id="edge18" class="edge">
<title>14&#45;&gt;15</title>
<path fill="none" stroke="black" d="M2209.75,-197.44C2209.75,-206.02 2209.75,-213.75 2209.75,-213.75 2209.75,-213.75 2305.95,-213.75 2305.95,-213.75"/>
<polygon fill="black" stroke="black" points="2305.95,-217.25 2315.95,-213.75 2305.95,-210.25 2305.95,-217.25"/>
</g>
<!-- 16 -->
<g id="node17" class="node">
<title>16</title>
<polygon fill="aliceblue" stroke="none" points="2653.25,-236.5 2498.75,-236.5 2498.75,-191 2653.25,-191 2653.25,-236.5"/>
<polygon fill="none" stroke="black" points="2498.75,-191 2498.75,-236.5 2562,-236.5 2562,-191 2498.75,-191"/>
<text xml:space="preserve" text-anchor="start" x="2503.75" y="-217" font-family="Linux libertine" font-size="10.00">__getitem__</text>
<text xml:space="preserve" text-anchor="start" x="2513.88" y="-204.25" font-family="Linux libertine" font-size="10.00">depth:1</text>
<polygon fill="none" stroke="black" points="2562,-213.75 2562,-236.5 2605.75,-236.5 2605.75,-213.75 2562,-213.75"/>
<text xml:space="preserve" text-anchor="start" x="2571.5" y="-222" font-family="Linux libertine" font-size="10.00">input:</text>
<polygon fill="none" stroke="black" points="2605.75,-213.75 2605.75,-236.5 2653.25,-236.5 2653.25,-213.75 2605.75,-213.75"/>
<text xml:space="preserve" text-anchor="start" x="2610.75" y="-222" font-family="Linux libertine" font-size="10.00">(1, 128) </text>
<polygon fill="none" stroke="black" points="2562,-191 2562,-213.75 2605.75,-213.75 2605.75,-191 2562,-191"/>
<text xml:space="preserve" text-anchor="start" x="2567" y="-199.25" font-family="Linux libertine" font-size="10.00">output: </text>
<polygon fill="none" stroke="black" points="2605.75,-191 2605.75,-213.75 2653.25,-213.75 2653.25,-191 2605.75,-191"/>
<text xml:space="preserve" text-anchor="start" x="2613.38" y="-199.25" font-family="Linux libertine" font-size="10.00">(1, 64) </text>
</g>
<!-- 15&#45;&gt;16 -->
<g id="edge19" class="edge">
<title>15&#45;&gt;16</title>
<path fill="none" stroke="black" d="M2462.71,-213.75C2462.71,-213.75 2487.53,-213.75 2487.53,-213.75"/>
<polygon fill="black" stroke="black" points="2487.53,-217.25 2497.53,-213.75 2487.53,-210.25 2487.53,-217.25"/>
</g>
<!-- 17 -->
<g id="node18" class="node">
<title>17</title>
<polygon fill="#c1ffc1" stroke="none" points="2823.5,-236.5 2689.25,-236.5 2689.25,-191 2823.5,-191 2823.5,-236.5"/>
<polygon fill="none" stroke="black" points="2689.25,-191 2689.25,-236.5 2732.25,-236.5 2732.25,-191 2689.25,-191"/>
<text xml:space="preserve" text-anchor="start" x="2697.25" y="-217" font-family="Linux libertine" font-size="10.00">Linear</text>
<text xml:space="preserve" text-anchor="start" x="2694.25" y="-204.25" font-family="Linux libertine" font-size="10.00">depth:1</text>
<polygon fill="none" stroke="black" points="2732.25,-213.75 2732.25,-236.5 2776,-236.5 2776,-213.75 2732.25,-213.75"/>
<text xml:space="preserve" text-anchor="start" x="2741.75" y="-222" font-family="Linux libertine" font-size="10.00">input:</text>
<polygon fill="none" stroke="black" points="2776,-213.75 2776,-236.5 2823.5,-236.5 2823.5,-213.75 2776,-213.75"/>
<text xml:space="preserve" text-anchor="start" x="2783.62" y="-222" font-family="Linux libertine" font-size="10.00">(1, 64) </text>
<polygon fill="none" stroke="black" points="2732.25,-191 2732.25,-213.75 2776,-213.75 2776,-191 2732.25,-191"/>
<text xml:space="preserve" text-anchor="start" x="2737.25" y="-199.25" font-family="Linux libertine" font-size="10.00">output: </text>
<polygon fill="none" stroke="black" points="2776,-191 2776,-213.75 2823.5,-213.75 2823.5,-191 2776,-191"/>
<text xml:space="preserve" text-anchor="start" x="2781" y="-199.25" font-family="Linux libertine" font-size="10.00">(1, 100) </text>
</g>
<!-- 16&#45;&gt;17 -->
<g id="edge20" class="edge">
<title>16&#45;&gt;17</title>
<path fill="none" stroke="black" d="M2653.02,-213.75C2653.02,-213.75 2677.77,-213.75 2677.77,-213.75"/>
<polygon fill="black" stroke="black" points="2677.77,-217.25 2687.77,-213.75 2677.77,-210.25 2677.77,-217.25"/>
</g>
<!-- 18 -->
<g id="node19" class="node">
<title>18</title>
<polygon fill="lightyellow" stroke="none" points="2971.75,-231.5 2859.5,-231.5 2859.5,-196 2971.75,-196 2971.75,-231.5"/>
<polygon fill="none" stroke="black" points="2859.5,-196 2859.5,-231.5 2927.25,-231.5 2927.25,-196 2859.5,-196"/>
<text xml:space="preserve" text-anchor="start" x="2864.5" y="-217" font-family="Linux libertine" font-size="10.00">output&#45;tensor</text>
<text xml:space="preserve" text-anchor="start" x="2876.88" y="-204.25" font-family="Linux libertine" font-size="10.00">depth:0</text>
<polygon fill="none" stroke="black" points="2927.25,-196 2927.25,-231.5 2971.75,-231.5 2971.75,-196 2927.25,-196"/>
<text xml:space="preserve" text-anchor="start" x="2932.25" y="-210.62" font-family="Linux libertine" font-size="10.00">(1, 100)</text>
</g>
<!-- 17&#45;&gt;18 -->
<g id="edge21" class="edge">
<title>17&#45;&gt;18</title>
<path fill="none" stroke="black" d="M2823.45,-213.75C2823.45,-213.75 2848.18,-213.75 2848.18,-213.75"/>
<polygon fill="black" stroke="black" points="2848.18,-217.25 2858.18,-213.75 2848.18,-210.25 2848.18,-217.25"/>
</g>
</g>
</svg>
