<?xml version="1.0" encoding="UTF-8" standalone="no"?>
<!DOCTYPE svg PUBLIC "-//W3C//DTD SVG 1.1//EN"
 "http://www.w3.org/Graphics/SVG/1.1/DTD/svg11.dtd">
<!-- Generated by graphviz version 14.0.5 (20251129.0259)
 -->
<!-- Title: Transformer_Encoder Pages: 1 -->
<svg width="3600pt" height="255pt"
 viewBox="0.00 0.00 3600.00 255.00" xmlns="http://www.w3.org/2000/svg" xmlns:xlink="http://www.w3.org/1999/xlink">
<g id="graph0" class="graph" transform="scale(2.36453 2.36453) rotate(0) translate(4 104)">
<title>Transformer_Encoder</title>
<polygon fill="white" stroke="none" points="-4,4 -4,-104 1518.5,-104 1518.5,4 -4,4"/>
<g id="clust1" class="cluster">
<title>cluster_2</title>
<polygon fill="none" stroke="black" stroke-dasharray="5,2" points="516.75,-8 516.75,-92 1027.75,-92 1027.75,-8 516.75,-8"/>
<text xml:space="preserve" text-anchor="middle" x="573.5" y="-76.6" font-family="Times New Roman,serif" font-size="12.00">TransformerEncoder</text>
</g>
<!-- 0 -->
<g id="node1" class="node">
<title>0</title>
<polygon fill="lightyellow" stroke="none" points="101,-56.75 0,-56.75 0,-21.25 101,-21.25 101,-56.75"/>
<polygon fill="none" stroke="black" points="0,-21.25 0,-56.75 61.75,-56.75 61.75,-21.25 0,-21.25"/>
<text xml:space="preserve" text-anchor="start" x="5" y="-42.25" font-family="Linux libertine" font-size="10.00">input&#45;tensor</text>
<text xml:space="preserve" text-anchor="start" x="14.38" y="-29.5" font-family="Linux libertine" font-size="10.00">depth:0</text>
<polygon fill="none" stroke="black" points="61.75,-21.25 61.75,-56.75 101,-56.75 101,-21.25 61.75,-21.25"/>
<text xml:space="preserve" text-anchor="start" x="66.75" y="-35.88" font-family="Linux libertine" font-size="10.00">(1, 50)</text>
</g>
<!-- 1 -->
<g id="node2" class="node">
<title>1</title>
<polygon fill="#c1ffc1" stroke="none" points="302,-61.75 137,-61.75 137,-16.25 302,-16.25 302,-61.75"/>
<polygon fill="none" stroke="black" points="137,-16.25 137,-61.75 194.25,-61.75 194.25,-16.25 137,-16.25"/>
<text xml:space="preserve" text-anchor="start" x="142" y="-42.25" font-family="Linux libertine" font-size="10.00">Embedding</text>
<text xml:space="preserve" text-anchor="start" x="149.12" y="-29.5" font-family="Linux libertine" font-size="10.00">depth:1</text>
<polygon fill="none" stroke="black" points="194.25,-39 194.25,-61.75 238,-61.75 238,-39 194.25,-39"/>
<text xml:space="preserve" text-anchor="start" x="203.75" y="-47.25" font-family="Linux libertine" font-size="10.00">input:</text>
<polygon fill="none" stroke="black" points="238,-39 238,-61.75 302,-61.75 302,-39 238,-39"/>
<text xml:space="preserve" text-anchor="start" x="253.88" y="-47.25" font-family="Linux libertine" font-size="10.00">(1, 50) </text>
<polygon fill="none" stroke="black" points="194.25,-16.25 194.25,-39 238,-39 238,-16.25 194.25,-16.25"/>
<text xml:space="preserve" text-anchor="start" x="199.25" y="-24.5" font-family="Linux libertine" font-size="10.00">output: </text>
<polygon fill="none" stroke="black" points="238,-16.25 238,-39 302,-39 302,-16.25 238,-16.25"/>
<text xml:space="preserve" text-anchor="start" x="243" y="-24.5" font-family="Linux libertine" font-size="10.00">(1, 50, 256) </text>
</g>
<!-- 0&#45;&gt;1 -->
<g id="edge1" class="edge">
<title>0&#45;&gt;1</title>
<path fill="none" stroke="black" d="M100.75,-39C100.75,-39 125.65,-39 125.65,-39"/>
<polygon fill="black" stroke="black" points="125.65,-42.5 135.65,-39 125.65,-35.5 125.65,-42.5"/>
</g>
<!-- 2 -->
<g id="node3" class="node">
<title>2</title>
<polygon fill="aliceblue" stroke="none" points="488.75,-61.75 338,-61.75 338,-16.25 488.75,-16.25 488.75,-61.75"/>
<polygon fill="none" stroke="black" points="338,-16.25 338,-61.75 381,-61.75 381,-16.25 338,-16.25"/>
<text xml:space="preserve" text-anchor="start" x="351.62" y="-42.25" font-family="Linux libertine" font-size="10.00">add</text>
<text xml:space="preserve" text-anchor="start" x="343" y="-29.5" font-family="Linux libertine" font-size="10.00">depth:1</text>
<polygon fill="none" stroke="black" points="381,-39 381,-61.75 424.75,-61.75 424.75,-39 381,-39"/>
<text xml:space="preserve" text-anchor="start" x="390.5" y="-47.25" font-family="Linux libertine" font-size="10.00">input:</text>
<polygon fill="none" stroke="black" points="424.75,-39 424.75,-61.75 488.75,-61.75 488.75,-39 424.75,-39"/>
<text xml:space="preserve" text-anchor="start" x="429.75" y="-47.25" font-family="Linux libertine" font-size="10.00">(1, 50, 256) </text>
<polygon fill="none" stroke="black" points="381,-16.25 381,-39 424.75,-39 424.75,-16.25 381,-16.25"/>
<text xml:space="preserve" text-anchor="start" x="386" y="-24.5" font-family="Linux libertine" font-size="10.00">output: </text>
<polygon fill="none" stroke="black" points="424.75,-16.25 424.75,-39 488.75,-39 488.75,-16.25 424.75,-16.25"/>
<text xml:space="preserve" text-anchor="start" x="429.75" y="-24.5" font-family="Linux libertine" font-size="10.00">(1, 50, 256) </text>
</g>
<!-- 1&#45;&gt;2 -->
<g id="edge2" class="edge">
<title>1&#45;&gt;2</title>
<path fill="none" stroke="black" d="M301.72,-39C301.72,-39 326.59,-39 326.59,-39"/>
<polygon fill="black" stroke="black" points="326.59,-42.5 336.59,-39 326.59,-35.5 326.59,-42.5"/>
</g>
<!-- 3 -->
<g id="node4" class="node">
<title>3</title>
<polygon fill="#c1ffc1" stroke="none" points="754.25,-61.75 524.75,-61.75 524.75,-16.25 754.25,-16.25 754.25,-61.75"/>
<polygon fill="none" stroke="black" points="524.75,-16.25 524.75,-61.75 646.5,-61.75 646.5,-16.25 524.75,-16.25"/>
<text xml:space="preserve" text-anchor="start" x="529.75" y="-42.25" font-family="Linux libertine" font-size="10.00">TransformerEncoderLayer</text>
<text xml:space="preserve" text-anchor="start" x="569.12" y="-29.5" font-family="Linux libertine" font-size="10.00">depth:2</text>
<polygon fill="none" stroke="black" points="646.5,-39 646.5,-61.75 690.25,-61.75 690.25,-39 646.5,-39"/>
<text xml:space="preserve" text-anchor="start" x="656" y="-47.25" font-family="Linux libertine" font-size="10.00">input:</text>
<polygon fill="none" stroke="black" points="690.25,-39 690.25,-61.75 754.25,-61.75 754.25,-39 690.25,-39"/>
<text xml:space="preserve" text-anchor="start" x="695.25" y="-47.25" font-family="Linux libertine" font-size="10.00">(1, 50, 256) </text>
<polygon fill="none" stroke="black" points="646.5,-16.25 646.5,-39 690.25,-39 690.25,-16.25 646.5,-16.25"/>
<text xml:space="preserve" text-anchor="start" x="651.5" y="-24.5" font-family="Linux libertine" font-size="10.00">output: </text>
<polygon fill="none" stroke="black" points="690.25,-16.25 690.25,-39 754.25,-39 754.25,-16.25 690.25,-16.25"/>
<text xml:space="preserve" text-anchor="start" x="695.25" y="-24.5" font-family="Linux libertine" font-size="10.00">(1, 50, 256) </text>
</g>
<!-- 2&#45;&gt;3 -->
<g id="edge3" class="edge">
<title>2&#45;&gt;3</title>
<path fill="none" stroke="black" d="M488.67,-39C488.67,-39 513.47,-39 513.47,-39"/>
<polygon fill="black" stroke="black" points="513.47,-42.5 523.47,-39 513.47,-35.5 513.47,-42.5"/>
</g>
<!-- 4 -->
<g id="node5" class="node">
<title>4</title>
<polygon fill="#c1ffc1" stroke="none" points="1019.75,-61.75 790.25,-61.75 790.25,-16.25 1019.75,-16.25 1019.75,-61.75"/>
<polygon fill="none" stroke="black" points="790.25,-16.25 790.25,-61.75 912,-61.75 912,-16.25 790.25,-16.25"/>
<text xml:space="preserve" text-anchor="start" x="795.25" y="-42.25" font-family="Linux libertine" font-size="10.00">TransformerEncoderLayer</text>
<text xml:space="preserve" text-anchor="start" x="834.62" y="-29.5" font-family="Linux libertine" font-size="10.00">depth:2</text>
<polygon fill="none" stroke="black" points="912,-39 912,-61.75 955.75,-61.75 955.75,-39 912,-39"/>
<text xml:space="preserve" text-anchor="start" x="921.5" y="-47.25" font-family="Linux libertine" font-size="10.00">input:</text>
<polygon fill="none" stroke="black" points="955.75,-39 955.75,-61.75 1019.75,-61.75 1019.75,-39 955.75,-39"/>
<text xml:space="preserve" text-anchor="start" x="960.75" y="-47.25" font-family="Linux libertine" font-size="10.00">(1, 50, 256) </text>
<polygon fill="none" stroke="black" points="912,-16.25 912,-39 955.75,-39 955.75,-16.25 912,-16.25"/>
<text xml:space="preserve" text-anchor="start" x="917" y="-24.5" font-family="Linux libertine" font-size="10.00">output: </text>
<polygon fill="none" stroke="black" points="955.75,-16.25 955.75,-39 1019.75,-39 1019.75,-16.25 955.75,-16.25"/>
<text xml:space="preserve" text-anchor="start" x="960.75" y="-24.5" font-family="Linux libertine" font-size="10.00">(1, 50, 256) </text>
</g>
<!-- 3&#45;&gt;4 -->
<g id="edge4" class="edge">
<title>3&#45;&gt;4</title>
<path fill="none" stroke="black" d="M754.02,-39C754.02,-39 778.92,-39 778.92,-39"/>
<polygon fill="black" stroke="black" points="778.92,-42.5 788.92,-39 778.92,-35.5 778.92,-42.5"/>
</g>
<!-- 5 -->
<g id="node6" class="node">
<title>5</title>
<polygon fill="aliceblue" stroke="none" points="1206.5,-61.75 1055.75,-61.75 1055.75,-16.25 1206.5,-16.25 1206.5,-61.75"/>
<polygon fill="none" stroke="black" points="1055.75,-16.25 1055.75,-61.75 1098.75,-61.75 1098.75,-16.25 1055.75,-16.25"/>
<text xml:space="preserve" text-anchor="start" x="1065.25" y="-42.25" font-family="Linux libertine" font-size="10.00">mean</text>
<text xml:space="preserve" text-anchor="start" x="1060.75" y="-29.5" font-family="Linux libertine" font-size="10.00">depth:1</text>
<polygon fill="none" stroke="black" points="1098.75,-39 1098.75,-61.75 1142.5,-61.75 1142.5,-39 1098.75,-39"/>
<text xml:space="preserve" text-anchor="start" x="1108.25" y="-47.25" font-family="Linux libertine" font-size="10.00">input:</text>
<polygon fill="none" stroke="black" points="1142.5,-39 1142.5,-61.75 1206.5,-61.75 1206.5,-39 1142.5,-39"/>
<text xml:space="preserve" text-anchor="start" x="1147.5" y="-47.25" font-family="Linux libertine" font-size="10.00">(1, 50, 256) </text>
<polygon fill="none" stroke="black" points="1098.75,-16.25 1098.75,-39 1142.5,-39 1142.5,-16.25 1098.75,-16.25"/>
<text xml:space="preserve" text-anchor="start" x="1103.75" y="-24.5" font-family="Linux libertine" font-size="10.00">output: </text>
<polygon fill="none" stroke="black" points="1142.5,-16.25 1142.5,-39 1206.5,-39 1206.5,-16.25 1142.5,-16.25"/>
<text xml:space="preserve" text-anchor="start" x="1155.75" y="-24.5" font-family="Linux libertine" font-size="10.00">(1, 256) </text>
</g>
<!-- 4&#45;&gt;5 -->
<g id="edge5" class="edge">
<title>4&#45;&gt;5</title>
<path fill="none" stroke="black" d="M1019.72,-39C1019.72,-39 1044.29,-39 1044.29,-39"/>
<polygon fill="black" stroke="black" points="1044.29,-42.5 1054.29,-39 1044.29,-35.5 1044.29,-42.5"/>
</g>
<!-- 6 -->
<g id="node7" class="node">
<title>6</title>
<polygon fill="#c1ffc1" stroke="none" points="1376.75,-61.75 1242.5,-61.75 1242.5,-16.25 1376.75,-16.25 1376.75,-61.75"/>
<polygon fill="none" stroke="black" points="1242.5,-16.25 1242.5,-61.75 1285.5,-61.75 1285.5,-16.25 1242.5,-16.25"/>
<text xml:space="preserve" text-anchor="start" x="1250.5" y="-42.25" font-family="Linux libertine" font-size="10.00">Linear</text>
<text xml:space="preserve" text-anchor="start" x="1247.5" y="-29.5" font-family="Linux libertine" font-size="10.00">depth:1</text>
<polygon fill="none" stroke="black" points="1285.5,-39 1285.5,-61.75 1329.25,-61.75 1329.25,-39 1285.5,-39"/>
<text xml:space="preserve" text-anchor="start" x="1295" y="-47.25" font-family="Linux libertine" font-size="10.00">input:</text>
<polygon fill="none" stroke="black" points="1329.25,-39 1329.25,-61.75 1376.75,-61.75 1376.75,-39 1329.25,-39"/>
<text xml:space="preserve" text-anchor="start" x="1334.25" y="-47.25" font-family="Linux libertine" font-size="10.00">(1, 256) </text>
<polygon fill="none" stroke="black" points="1285.5,-16.25 1285.5,-39 1329.25,-39 1329.25,-16.25 1285.5,-16.25"/>
<text xml:space="preserve" text-anchor="start" x="1290.5" y="-24.5" font-family="Linux libertine" font-size="10.00">output: </text>
<polygon fill="none" stroke="black" points="1329.25,-16.25 1329.25,-39 1376.75,-39 1376.75,-16.25 1329.25,-16.25"/>
<text xml:space="preserve" text-anchor="start" x="1339.5" y="-24.5" font-family="Linux libertine" font-size="10.00">(1, 2) </text>
</g>
<!-- 5&#45;&gt;6 -->
<g id="edge6" class="edge">
<title>5&#45;&gt;6</title>
<path fill="none" stroke="black" d="M1206.31,-39C1206.31,-39 1231.24,-39 1231.24,-39"/>
<polygon fill="black" stroke="black" points="1231.24,-42.5 1241.24,-39 1231.24,-35.5 1231.24,-42.5"/>
</g>
<!-- 7 -->
<g id="node8" class="node">
<title>7</title>
<polygon fill="lightyellow" stroke="none" points="1514.5,-56.75 1412.75,-56.75 1412.75,-21.25 1514.5,-21.25 1514.5,-56.75"/>
<polygon fill="none" stroke="black" points="1412.75,-21.25 1412.75,-56.75 1480.5,-56.75 1480.5,-21.25 1412.75,-21.25"/>
<text xml:space="preserve" text-anchor="start" x="1417.75" y="-42.25" font-family="Linux libertine" font-size="10.00">output&#45;tensor</text>
<text xml:space="preserve" text-anchor="start" x="1430.12" y="-29.5" font-family="Linux libertine" font-size="10.00">depth:0</text>
<polygon fill="none" stroke="black" points="1480.5,-21.25 1480.5,-56.75 1514.5,-56.75 1514.5,-21.25 1480.5,-21.25"/>
<text xml:space="preserve" text-anchor="start" x="1485.5" y="-35.88" font-family="Linux libertine" font-size="10.00">(1, 2)</text>
</g>
<!-- 6&#45;&gt;7 -->
<g id="edge7" class="edge">
<title>6&#45;&gt;7</title>
<path fill="none" stroke="black" d="M1376.72,-39C1376.72,-39 1401.45,-39 1401.45,-39"/>
<polygon fill="black" stroke="black" points="1401.45,-42.5 1411.45,-39 1401.45,-35.5 1401.45,-42.5"/>
</g>
</g>
</svg>
