<?xml version="1.0" encoding="UTF-8" standalone="no"?>
<!DOCTYPE svg PUBLIC "-//W3C//DTD SVG 1.1//EN"
 "http://www.w3.org/Graphics/SVG/1.1/DTD/svg11.dtd">
<!-- Generated by graphviz version 14.0.5 (20251129.0259)
 -->
<!-- Title: VAE Pages: 1 -->
<svg width="4142pt" height="260pt"
 viewBox="0.00 0.00 4142.00 260.00" xmlns="http://www.w3.org/2000/svg" xmlns:xlink="http://www.w3.org/1999/xlink">
<g id="graph0" class="graph" transform="scale(1.21706 1.21706) rotate(0) translate(4 209.5)">
<title>VAE</title>
<polygon fill="white" stroke="none" points="-4,4 -4,-209.5 3399,-209.5 3399,4 -4,4"/>
<g id="clust1" class="cluster">
<title>cluster_2</title>
<polygon fill="none" stroke="black" stroke-dasharray="5,2" points="156.75,-90.75 156.75,-174.75 1105.75,-174.75 1105.75,-90.75 156.75,-90.75"/>
<text xml:space="preserve" text-anchor="middle" x="189.5" y="-159.35" font-family="Times New Roman,serif" font-size="12.00">Sequential</text>
</g>
<g id="clust2" class="cluster">
<title>cluster_3</title>
<polygon fill="none" stroke="black" stroke-dasharray="5,2" points="2169.75,-112.75 2169.75,-196.75 3387,-196.75 3387,-112.75 2169.75,-112.75"/>
<text xml:space="preserve" text-anchor="middle" x="2202.5" y="-181.35" font-family="Times New Roman,serif" font-size="12.00">Sequential</text>
</g>
<!-- 0 -->
<g id="node1" class="node">
<title>0</title>
<polygon fill="lightyellow" stroke="none" points="128.75,-139.5 0,-139.5 0,-104 128.75,-104 128.75,-139.5"/>
<polygon fill="none" stroke="black" points="0,-104 0,-139.5 61.75,-139.5 61.75,-104 0,-104"/>
<text xml:space="preserve" text-anchor="start" x="5" y="-125" font-family="Linux libertine" font-size="10.00">input&#45;tensor</text>
<text xml:space="preserve" text-anchor="start" x="14.38" y="-112.25" font-family="Linux libertine" font-size="10.00">depth:0</text>
<polygon fill="none" stroke="black" points="61.75,-104 61.75,-139.5 128.75,-139.5 128.75,-104 61.75,-104"/>
<text xml:space="preserve" text-anchor="start" x="66.75" y="-118.62" font-family="Linux libertine" font-size="10.00">(1, 1, 28, 28)</text>
</g>
<!-- 1 -->
<g id="node2" class="node">
<title>1</title>
<polygon fill="#c1ffc1" stroke="none" points="326.75,-144.5 164.75,-144.5 164.75,-99 326.75,-99 326.75,-144.5"/>
<polygon fill="none" stroke="black" points="164.75,-99 164.75,-144.5 207.75,-144.5 207.75,-99 164.75,-99"/>
<text xml:space="preserve" text-anchor="start" x="170.12" y="-125" font-family="Linux libertine" font-size="10.00">Conv2d</text>
<text xml:space="preserve" text-anchor="start" x="169.75" y="-112.25" font-family="Linux libertine" font-size="10.00">depth:2</text>
<polygon fill="none" stroke="black" points="207.75,-121.75 207.75,-144.5 251.5,-144.5 251.5,-121.75 207.75,-121.75"/>
<text xml:space="preserve" text-anchor="start" x="217.25" y="-130" font-family="Linux libertine" font-size="10.00">input:</text>
<polygon fill="none" stroke="black" points="251.5,-121.75 251.5,-144.5 326.75,-144.5 326.75,-121.75 251.5,-121.75"/>
<text xml:space="preserve" text-anchor="start" x="259.12" y="-130" font-family="Linux libertine" font-size="10.00">(1, 1, 28, 28) </text>
<polygon fill="none" stroke="black" points="207.75,-99 207.75,-121.75 251.5,-121.75 251.5,-99 207.75,-99"/>
<text xml:space="preserve" text-anchor="start" x="212.75" y="-107.25" font-family="Linux libertine" font-size="10.00">output: </text>
<polygon fill="none" stroke="black" points="251.5,-99 251.5,-121.75 326.75,-121.75 326.75,-99 251.5,-99"/>
<text xml:space="preserve" text-anchor="start" x="256.5" y="-107.25" font-family="Linux libertine" font-size="10.00">(1, 16, 14, 14) </text>
</g>
<!-- 0&#45;&gt;1 -->
<g id="edge1" class="edge">
<title>0&#45;&gt;1</title>
<path fill="none" stroke="black" d="M128.58,-121.75C128.58,-121.75 153.28,-121.75 153.28,-121.75"/>
<polygon fill="black" stroke="black" points="153.28,-125.25 163.28,-121.75 153.28,-118.25 153.28,-125.25"/>
</g>
<!-- 2 -->
<g id="node3" class="node">
<title>2</title>
<polygon fill="#c1ffc1" stroke="none" points="524.75,-144.5 362.75,-144.5 362.75,-99 524.75,-99 524.75,-144.5"/>
<polygon fill="none" stroke="black" points="362.75,-99 362.75,-144.5 405.75,-144.5 405.75,-99 362.75,-99"/>
<text xml:space="preserve" text-anchor="start" x="372.62" y="-125" font-family="Linux libertine" font-size="10.00">ReLU</text>
<text xml:space="preserve" text-anchor="start" x="367.75" y="-112.25" font-family="Linux libertine" font-size="10.00">depth:2</text>
<polygon fill="none" stroke="black" points="405.75,-121.75 405.75,-144.5 449.5,-144.5 449.5,-121.75 405.75,-121.75"/>
<text xml:space="preserve" text-anchor="start" x="415.25" y="-130" font-family="Linux libertine" font-size="10.00">input:</text>
<polygon fill="none" stroke="black" points="449.5,-121.75 449.5,-144.5 524.75,-144.5 524.75,-121.75 449.5,-121.75"/>
<text xml:space="preserve" text-anchor="start" x="454.5" y="-130" font-family="Linux libertine" font-size="10.00">(1, 16, 14, 14) </text>
<polygon fill="none" stroke="black" points="405.75,-99 405.75,-121.75 449.5,-121.75 449.5,-99 405.75,-99"/>
<text xml:space="preserve" text-anchor="start" x="410.75" y="-107.25" font-family="Linux libertine" font-size="10.00">output: </text>
<polygon fill="none" stroke="black" points="449.5,-99 449.5,-121.75 524.75,-121.75 524.75,-99 449.5,-99"/>
<text xml:space="preserve" text-anchor="start" x="454.5" y="-107.25" font-family="Linux libertine" font-size="10.00">(1, 16, 14, 14) </text>
</g>
<!-- 1&#45;&gt;2 -->
<g id="edge2" class="edge">
<title>1&#45;&gt;2</title>
<path fill="none" stroke="black" d="M326.57,-121.75C326.57,-121.75 351.35,-121.75 351.35,-121.75"/>
<polygon fill="black" stroke="black" points="351.35,-125.25 361.35,-121.75 351.35,-118.25 351.35,-125.25"/>
</g>
<!-- 3 -->
<g id="node4" class="node">
<title>3</title>
<polygon fill="#c1ffc1" stroke="none" points="722.75,-144.5 560.75,-144.5 560.75,-99 722.75,-99 722.75,-144.5"/>
<polygon fill="none" stroke="black" points="560.75,-99 560.75,-144.5 603.75,-144.5 603.75,-99 560.75,-99"/>
<text xml:space="preserve" text-anchor="start" x="566.12" y="-125" font-family="Linux libertine" font-size="10.00">Conv2d</text>
<text xml:space="preserve" text-anchor="start" x="565.75" y="-112.25" font-family="Linux libertine" font-size="10.00">depth:2</text>
<polygon fill="none" stroke="black" points="603.75,-121.75 603.75,-144.5 647.5,-144.5 647.5,-121.75 603.75,-121.75"/>
<text xml:space="preserve" text-anchor="start" x="613.25" y="-130" font-family="Linux libertine" font-size="10.00">input:</text>
<polygon fill="none" stroke="black" points="647.5,-121.75 647.5,-144.5 722.75,-144.5 722.75,-121.75 647.5,-121.75"/>
<text xml:space="preserve" text-anchor="start" x="652.5" y="-130" font-family="Linux libertine" font-size="10.00">(1, 16, 14, 14) </text>
<polygon fill="none" stroke="black" points="603.75,-99 603.75,-121.75 647.5,-121.75 647.5,-99 603.75,-99"/>
<text xml:space="preserve" text-anchor="start" x="608.75" y="-107.25" font-family="Linux libertine" font-size="10.00">output: </text>
<polygon fill="none" stroke="black" points="647.5,-99 647.5,-121.75 722.75,-121.75 722.75,-99 647.5,-99"/>
<text xml:space="preserve" text-anchor="start" x="657.75" y="-107.25" font-family="Linux libertine" font-size="10.00">(1, 32, 7, 7) </text>
</g>
<!-- 2&#45;&gt;3 -->
<g id="edge3" class="edge">
<title>2&#45;&gt;3</title>
<path fill="none" stroke="black" d="M524.57,-121.75C524.57,-121.75 549.35,-121.75 549.35,-121.75"/>
<polygon fill="black" stroke="black" points="549.35,-125.25 559.35,-121.75 549.35,-118.25 549.35,-125.25"/>
</g>
<!-- 4 -->
<g id="node5" class="node">
<title>4</title>
<polygon fill="#c1ffc1" stroke="none" points="910.25,-144.5 758.75,-144.5 758.75,-99 910.25,-99 910.25,-144.5"/>
<polygon fill="none" stroke="black" points="758.75,-99 758.75,-144.5 801.75,-144.5 801.75,-99 758.75,-99"/>
<text xml:space="preserve" text-anchor="start" x="768.62" y="-125" font-family="Linux libertine" font-size="10.00">ReLU</text>
<text xml:space="preserve" text-anchor="start" x="763.75" y="-112.25" font-family="Linux libertine" font-size="10.00">depth:2</text>
<polygon fill="none" stroke="black" points="801.75,-121.75 801.75,-144.5 845.5,-144.5 845.5,-121.75 801.75,-121.75"/>
<text xml:space="preserve" text-anchor="start" x="811.25" y="-130" font-family="Linux libertine" font-size="10.00">input:</text>
<polygon fill="none" stroke="black" points="845.5,-121.75 845.5,-144.5 910.25,-144.5 910.25,-121.75 845.5,-121.75"/>
<text xml:space="preserve" text-anchor="start" x="850.5" y="-130" font-family="Linux libertine" font-size="10.00">(1, 32, 7, 7) </text>
<polygon fill="none" stroke="black" points="801.75,-99 801.75,-121.75 845.5,-121.75 845.5,-99 801.75,-99"/>
<text xml:space="preserve" text-anchor="start" x="806.75" y="-107.25" font-family="Linux libertine" font-size="10.00">output: </text>
<polygon fill="none" stroke="black" points="845.5,-99 845.5,-121.75 910.25,-121.75 910.25,-99 845.5,-99"/>
<text xml:space="preserve" text-anchor="start" x="850.5" y="-107.25" font-family="Linux libertine" font-size="10.00">(1, 32, 7, 7) </text>
</g>
<!-- 3&#45;&gt;4 -->
<g id="edge4" class="edge">
<title>3&#45;&gt;4</title>
<path fill="none" stroke="black" d="M722.66,-121.75C722.66,-121.75 747.52,-121.75 747.52,-121.75"/>
<polygon fill="black" stroke="black" points="747.52,-125.25 757.52,-121.75 747.52,-118.25 747.52,-125.25"/>
</g>
<!-- 5 -->
<g id="node6" class="node">
<title>5</title>
<polygon fill="#c1ffc1" stroke="none" points="1097.75,-144.5 946.25,-144.5 946.25,-99 1097.75,-99 1097.75,-144.5"/>
<polygon fill="none" stroke="black" points="946.25,-99 946.25,-144.5 989.25,-144.5 989.25,-99 946.25,-99"/>
<text xml:space="preserve" text-anchor="start" x="953.12" y="-125" font-family="Linux libertine" font-size="10.00">Flatten</text>
<text xml:space="preserve" text-anchor="start" x="951.25" y="-112.25" font-family="Linux libertine" font-size="10.00">depth:2</text>
<polygon fill="none" stroke="black" points="989.25,-121.75 989.25,-144.5 1033,-144.5 1033,-121.75 989.25,-121.75"/>
<text xml:space="preserve" text-anchor="start" x="998.75" y="-130" font-family="Linux libertine" font-size="10.00">input:</text>
<polygon fill="none" stroke="black" points="1033,-121.75 1033,-144.5 1097.75,-144.5 1097.75,-121.75 1033,-121.75"/>
<text xml:space="preserve" text-anchor="start" x="1038" y="-130" font-family="Linux libertine" font-size="10.00">(1, 32, 7, 7) </text>
<polygon fill="none" stroke="black" points="989.25,-99 989.25,-121.75 1033,-121.75 1033,-99 989.25,-99"/>
<text xml:space="preserve" text-anchor="start" x="994.25" y="-107.25" font-family="Linux libertine" font-size="10.00">output: </text>
<polygon fill="none" stroke="black" points="1033,-99 1033,-121.75 1097.75,-121.75 1097.75,-99 1033,-99"/>
<text xml:space="preserve" text-anchor="start" x="1044" y="-107.25" font-family="Linux libertine" font-size="10.00">(1, 1568) </text>
</g>
<!-- 4&#45;&gt;5 -->
<g id="edge5" class="edge">
<title>4&#45;&gt;5</title>
<path fill="none" stroke="black" d="M910.22,-121.75C910.22,-121.75 934.79,-121.75 934.79,-121.75"/>
<polygon fill="black" stroke="black" points="934.79,-125.25 944.79,-121.75 934.79,-118.25 934.79,-125.25"/>
</g>
<!-- 6 -->
<g id="node7" class="node">
<title>6</title>
<polygon fill="#c1ffc1" stroke="none" points="1273.25,-205.5 1133.75,-205.5 1133.75,-160 1273.25,-160 1273.25,-205.5"/>
<polygon fill="none" stroke="black" points="1133.75,-160 1133.75,-205.5 1176.75,-205.5 1176.75,-160 1133.75,-160"/>
<text xml:space="preserve" text-anchor="start" x="1141.75" y="-186" font-family="Linux libertine" font-size="10.00">Linear</text>
<text xml:space="preserve" text-anchor="start" x="1138.75" y="-173.25" font-family="Linux libertine" font-size="10.00">depth:1</text>
<polygon fill="none" stroke="black" points="1176.75,-182.75 1176.75,-205.5 1220.5,-205.5 1220.5,-182.75 1176.75,-182.75"/>
<text xml:space="preserve" text-anchor="start" x="1186.25" y="-191" font-family="Linux libertine" font-size="10.00">input:</text>
<polygon fill="none" stroke="black" points="1220.5,-182.75 1220.5,-205.5 1273.25,-205.5 1273.25,-182.75 1220.5,-182.75"/>
<text xml:space="preserve" text-anchor="start" x="1225.5" y="-191" font-family="Linux libertine" font-size="10.00">(1, 1568) </text>
<polygon fill="none" stroke="black" points="1176.75,-160 1176.75,-182.75 1220.5,-182.75 1220.5,-160 1176.75,-160"/>
<text xml:space="preserve" text-anchor="start" x="1181.75" y="-168.25" font-family="Linux libertine" font-size="10.00">output: </text>
<polygon fill="none" stroke="black" points="1220.5,-160 1220.5,-182.75 1273.25,-182.75 1273.25,-160 1220.5,-160"/>
<text xml:space="preserve" text-anchor="start" x="1230.75" y="-168.25" font-family="Linux libertine" font-size="10.00">(1, 20) </text>
</g>
<!-- 5&#45;&gt;6 -->
<g id="edge6" class="edge">
<title>5&#45;&gt;6</title>
<path fill="none" stroke="black" d="M1097.46,-133.17C1155.91,-133.17 1227,-133.17 1227,-133.17 1227,-133.17 1227,-148.77 1227,-148.77"/>
<polygon fill="black" stroke="black" points="1223.5,-148.77 1227,-158.77 1230.5,-148.77 1223.5,-148.77"/>
</g>
<!-- 7 -->
<g id="node8" class="node">
<title>7</title>
<polygon fill="#c1ffc1" stroke="none" points="1273.25,-123.5 1133.75,-123.5 1133.75,-78 1273.25,-78 1273.25,-123.5"/>
<polygon fill="none" stroke="black" points="1133.75,-78 1133.75,-123.5 1176.75,-123.5 1176.75,-78 1133.75,-78"/>
<text xml:space="preserve" text-anchor="start" x="1141.75" y="-104" font-family="Linux libertine" font-size="10.00">Linear</text>
<text xml:space="preserve" text-anchor="start" x="1138.75" y="-91.25" font-family="Linux libertine" font-size="10.00">depth:1</text>
<polygon fill="none" stroke="black" points="1176.75,-100.75 1176.75,-123.5 1220.5,-123.5 1220.5,-100.75 1176.75,-100.75"/>
<text xml:space="preserve" text-anchor="start" x="1186.25" y="-109" font-family="Linux libertine" font-size="10.00">input:</text>
<polygon fill="none" stroke="black" points="1220.5,-100.75 1220.5,-123.5 1273.25,-123.5 1273.25,-100.75 1220.5,-100.75"/>
<text xml:space="preserve" text-anchor="start" x="1225.5" y="-109" font-family="Linux libertine" font-size="10.00">(1, 1568) </text>
<polygon fill="none" stroke="black" points="1176.75,-78 1176.75,-100.75 1220.5,-100.75 1220.5,-78 1176.75,-78"/>
<text xml:space="preserve" text-anchor="start" x="1181.75" y="-86.25" font-family="Linux libertine" font-size="10.00">output: </text>
<polygon fill="none" stroke="black" points="1220.5,-78 1220.5,-100.75 1273.25,-100.75 1273.25,-78 1220.5,-78"/>
<text xml:space="preserve" text-anchor="start" x="1230.75" y="-86.25" font-family="Linux libertine" font-size="10.00">(1, 20) </text>
</g>
<!-- 5&#45;&gt;7 -->
<g id="edge7" class="edge">
<title>5&#45;&gt;7</title>
<path fill="none" stroke="black" d="M1097.66,-111.25C1097.66,-111.25 1122.25,-111.25 1122.25,-111.25"/>
<polygon fill="black" stroke="black" points="1122.25,-114.75 1132.25,-111.25 1122.25,-107.75 1122.25,-114.75"/>
</g>
<!-- 12 -->
<g id="node13" class="node">
<title>12</title>
<polygon fill="aliceblue" stroke="none" points="1966.25,-166.5 1820.75,-166.5 1820.75,-121 1966.25,-121 1966.25,-166.5"/>
<polygon fill="none" stroke="black" points="1820.75,-121 1820.75,-166.5 1863.75,-166.5 1863.75,-121 1820.75,-121"/>
<text xml:space="preserve" text-anchor="start" x="1834.38" y="-147" font-family="Linux libertine" font-size="10.00">add</text>
<text xml:space="preserve" text-anchor="start" x="1825.75" y="-134.25" font-family="Linux libertine" font-size="10.00">depth:1</text>
<polygon fill="none" stroke="black" points="1863.75,-143.75 1863.75,-166.5 1907.5,-166.5 1907.5,-143.75 1863.75,-143.75"/>
<text xml:space="preserve" text-anchor="start" x="1873.25" y="-152" font-family="Linux libertine" font-size="10.00">input:</text>
<polygon fill="none" stroke="black" points="1907.5,-143.75 1907.5,-166.5 1966.25,-166.5 1966.25,-143.75 1907.5,-143.75"/>
<text xml:space="preserve" text-anchor="start" x="1912.5" y="-152" font-family="Linux libertine" font-size="10.00">2 x (1, 20) </text>
<polygon fill="none" stroke="black" points="1863.75,-121 1863.75,-143.75 1907.5,-143.75 1907.5,-121 1863.75,-121"/>
<text xml:space="preserve" text-anchor="start" x="1868.75" y="-129.25" font-family="Linux libertine" font-size="10.00">output: </text>
<polygon fill="none" stroke="black" points="1907.5,-121 1907.5,-143.75 1966.25,-143.75 1966.25,-121 1907.5,-121"/>
<text xml:space="preserve" text-anchor="start" x="1920.75" y="-129.25" font-family="Linux libertine" font-size="10.00">(1, 20) </text>
</g>
<!-- 6&#45;&gt;12 -->
<g id="edge8" class="edge">
<title>6&#45;&gt;12</title>
<path fill="none" stroke="black" d="M1180,-160.26C1180,-155.69 1180,-152.25 1180,-152.25 1180,-152.25 1809.31,-152.25 1809.31,-152.25"/>
<polygon fill="black" stroke="black" points="1809.31,-155.75 1819.31,-152.25 1809.31,-148.75 1809.31,-155.75"/>
</g>
<!-- 8 -->
<g id="node9" class="node">
<title>8</title>
<polygon fill="aliceblue" stroke="none" points="1438.25,-123.5 1309.25,-123.5 1309.25,-78 1438.25,-78 1438.25,-123.5"/>
<polygon fill="none" stroke="black" points="1309.25,-78 1309.25,-123.5 1352.25,-123.5 1352.25,-78 1309.25,-78"/>
<text xml:space="preserve" text-anchor="start" x="1322.88" y="-104" font-family="Linux libertine" font-size="10.00">mul</text>
<text xml:space="preserve" text-anchor="start" x="1314.25" y="-91.25" font-family="Linux libertine" font-size="10.00">depth:1</text>
<polygon fill="none" stroke="black" points="1352.25,-100.75 1352.25,-123.5 1396,-123.5 1396,-100.75 1352.25,-100.75"/>
<text xml:space="preserve" text-anchor="start" x="1361.75" y="-109" font-family="Linux libertine" font-size="10.00">input:</text>
<polygon fill="none" stroke="black" points="1396,-100.75 1396,-123.5 1438.25,-123.5 1438.25,-100.75 1396,-100.75"/>
<text xml:space="preserve" text-anchor="start" x="1401" y="-109" font-family="Linux libertine" font-size="10.00">(1, 20) </text>
<polygon fill="none" stroke="black" points="1352.25,-78 1352.25,-100.75 1396,-100.75 1396,-78 1352.25,-78"/>
<text xml:space="preserve" text-anchor="start" x="1357.25" y="-86.25" font-family="Linux libertine" font-size="10.00">output: </text>
<polygon fill="none" stroke="black" points="1396,-78 1396,-100.75 1438.25,-100.75 1438.25,-78 1396,-78"/>
<text xml:space="preserve" text-anchor="start" x="1401" y="-86.25" font-family="Linux libertine" font-size="10.00">(1, 20) </text>
</g>
<!-- 7&#45;&gt;8 -->
<g id="edge9" class="edge">
<title>7&#45;&gt;8</title>
<path fill="none" stroke="black" d="M1273.24,-100.75C1273.24,-100.75 1297.81,-100.75 1297.81,-100.75"/>
<polygon fill="black" stroke="black" points="1297.81,-104.25 1307.81,-100.75 1297.81,-97.25 1297.81,-104.25"/>
</g>
<!-- 9 -->
<g id="node10" class="node">
<title>9</title>
<polygon fill="aliceblue" stroke="none" points="1603.25,-123.5 1474.25,-123.5 1474.25,-78 1603.25,-78 1603.25,-123.5"/>
<polygon fill="none" stroke="black" points="1474.25,-78 1474.25,-123.5 1517.25,-123.5 1517.25,-78 1474.25,-78"/>
<text xml:space="preserve" text-anchor="start" x="1487.88" y="-104" font-family="Linux libertine" font-size="10.00">exp</text>
<text xml:space="preserve" text-anchor="start" x="1479.25" y="-91.25" font-family="Linux libertine" font-size="10.00">depth:1</text>
<polygon fill="none" stroke="black" points="1517.25,-100.75 1517.25,-123.5 1561,-123.5 1561,-100.75 1517.25,-100.75"/>
<text xml:space="preserve" text-anchor="start" x="1526.75" y="-109" font-family="Linux libertine" font-size="10.00">input:</text>
<polygon fill="none" stroke="black" points="1561,-100.75 1561,-123.5 1603.25,-123.5 1603.25,-100.75 1561,-100.75"/>
<text xml:space="preserve" text-anchor="start" x="1566" y="-109" font-family="Linux libertine" font-size="10.00">(1, 20) </text>
<polygon fill="none" stroke="black" points="1517.25,-78 1517.25,-100.75 1561,-100.75 1561,-78 1517.25,-78"/>
<text xml:space="preserve" text-anchor="start" x="1522.25" y="-86.25" font-family="Linux libertine" font-size="10.00">output: </text>
<polygon fill="none" stroke="black" points="1561,-78 1561,-100.75 1603.25,-100.75 1603.25,-78 1561,-78"/>
<text xml:space="preserve" text-anchor="start" x="1566" y="-86.25" font-family="Linux libertine" font-size="10.00">(1, 20) </text>
</g>
<!-- 8&#45;&gt;9 -->
<g id="edge10" class="edge">
<title>8&#45;&gt;9</title>
<path fill="none" stroke="black" d="M1438.02,-100.75C1438.02,-100.75 1462.87,-100.75 1462.87,-100.75"/>
<polygon fill="black" stroke="black" points="1462.87,-104.25 1472.87,-100.75 1462.87,-97.25 1462.87,-104.25"/>
</g>
<!-- 10 -->
<g id="node11" class="node">
<title>10</title>
<polygon fill="aliceblue" stroke="none" points="1782.5,-45.5 1641.5,-45.5 1641.5,0 1782.5,0 1782.5,-45.5"/>
<polygon fill="none" stroke="black" points="1641.5,0 1641.5,-45.5 1696.5,-45.5 1696.5,0 1641.5,0"/>
<text xml:space="preserve" text-anchor="start" x="1646.5" y="-26" font-family="Linux libertine" font-size="10.00">randn_like</text>
<text xml:space="preserve" text-anchor="start" x="1652.5" y="-13.25" font-family="Linux libertine" font-size="10.00">depth:1</text>
<polygon fill="none" stroke="black" points="1696.5,-22.75 1696.5,-45.5 1740.25,-45.5 1740.25,-22.75 1696.5,-22.75"/>
<text xml:space="preserve" text-anchor="start" x="1706" y="-31" font-family="Linux libertine" font-size="10.00">input:</text>
<polygon fill="none" stroke="black" points="1740.25,-22.75 1740.25,-45.5 1782.5,-45.5 1782.5,-22.75 1740.25,-22.75"/>
<text xml:space="preserve" text-anchor="start" x="1745.25" y="-31" font-family="Linux libertine" font-size="10.00">(1, 20) </text>
<polygon fill="none" stroke="black" points="1696.5,0 1696.5,-22.75 1740.25,-22.75 1740.25,0 1696.5,0"/>
<text xml:space="preserve" text-anchor="start" x="1701.5" y="-8.25" font-family="Linux libertine" font-size="10.00">output: </text>
<polygon fill="none" stroke="black" points="1740.25,0 1740.25,-22.75 1782.5,-22.75 1782.5,0 1740.25,0"/>
<text xml:space="preserve" text-anchor="start" x="1745.25" y="-8.25" font-family="Linux libertine" font-size="10.00">(1, 20) </text>
</g>
<!-- 9&#45;&gt;10 -->
<g id="edge11" class="edge">
<title>9&#45;&gt;10</title>
<path fill="none" stroke="black" d="M1539,-78.19C1539,-55.15 1539,-22.75 1539,-22.75 1539,-22.75 1630.12,-22.75 1630.12,-22.75"/>
<polygon fill="black" stroke="black" points="1630.12,-26.25 1640.12,-22.75 1630.12,-19.25 1630.12,-26.25"/>
</g>
<!-- 11 -->
<g id="node12" class="node">
<title>11</title>
<polygon fill="aliceblue" stroke="none" points="1784.75,-127.5 1639.25,-127.5 1639.25,-82 1784.75,-82 1784.75,-127.5"/>
<polygon fill="none" stroke="black" points="1639.25,-82 1639.25,-127.5 1682.25,-127.5 1682.25,-82 1639.25,-82"/>
<text xml:space="preserve" text-anchor="start" x="1652.88" y="-108" font-family="Linux libertine" font-size="10.00">mul</text>
<text xml:space="preserve" text-anchor="start" x="1644.25" y="-95.25" font-family="Linux libertine" font-size="10.00">depth:1</text>
<polygon fill="none" stroke="black" points="1682.25,-104.75 1682.25,-127.5 1726,-127.5 1726,-104.75 1682.25,-104.75"/>
<text xml:space="preserve" text-anchor="start" x="1691.75" y="-113" font-family="Linux libertine" font-size="10.00">input:</text>
<polygon fill="none" stroke="black" points="1726,-104.75 1726,-127.5 1784.75,-127.5 1784.75,-104.75 1726,-104.75"/>
<text xml:space="preserve" text-anchor="start" x="1731" y="-113" font-family="Linux libertine" font-size="10.00">2 x (1, 20) </text>
<polygon fill="none" stroke="black" points="1682.25,-82 1682.25,-104.75 1726,-104.75 1726,-82 1682.25,-82"/>
<text xml:space="preserve" text-anchor="start" x="1687.25" y="-90.25" font-family="Linux libertine" font-size="10.00">output: </text>
<polygon fill="none" stroke="black" points="1726,-82 1726,-104.75 1784.75,-104.75 1784.75,-82 1726,-82"/>
<text xml:space="preserve" text-anchor="start" x="1739.25" y="-90.25" font-family="Linux libertine" font-size="10.00">(1, 20) </text>
</g>
<!-- 9&#45;&gt;11 -->
<g id="edge12" class="edge">
<title>9&#45;&gt;11</title>
<path fill="none" stroke="black" d="M1602.77,-102.75C1602.77,-102.75 1627.97,-102.75 1627.97,-102.75"/>
<polygon fill="black" stroke="black" points="1627.97,-106.25 1637.97,-102.75 1627.97,-99.25 1627.97,-106.25"/>
</g>
<!-- 11&#45;&gt;12 -->
<g id="edge13" class="edge">
<title>11&#45;&gt;12</title>
<path fill="none" stroke="black" d="M1712,-127.29C1712,-133.63 1712,-138.83 1712,-138.83 1712,-138.83 1809.47,-138.83 1809.47,-138.83"/>
<polygon fill="black" stroke="black" points="1809.47,-142.33 1819.47,-138.83 1809.47,-135.33 1809.47,-142.33"/>
</g>
<!-- 13 -->
<g id="node14" class="node">
<title>13</title>
<polygon fill="#c1ffc1" stroke="none" points="2141.75,-166.5 2002.25,-166.5 2002.25,-121 2141.75,-121 2141.75,-166.5"/>
<polygon fill="none" stroke="black" points="2002.25,-121 2002.25,-166.5 2045.25,-166.5 2045.25,-121 2002.25,-121"/>
<text xml:space="preserve" text-anchor="start" x="2010.25" y="-147" font-family="Linux libertine" font-size="10.00">Linear</text>
<text xml:space="preserve" text-anchor="start" x="2007.25" y="-134.25" font-family="Linux libertine" font-size="10.00">depth:1</text>
<polygon fill="none" stroke="black" points="2045.25,-143.75 2045.25,-166.5 2089,-166.5 2089,-143.75 2045.25,-143.75"/>
<text xml:space="preserve" text-anchor="start" x="2054.75" y="-152" font-family="Linux libertine" font-size="10.00">input:</text>
<polygon fill="none" stroke="black" points="2089,-143.75 2089,-166.5 2141.75,-166.5 2141.75,-143.75 2089,-143.75"/>
<text xml:space="preserve" text-anchor="start" x="2099.25" y="-152" font-family="Linux libertine" font-size="10.00">(1, 20) </text>
<polygon fill="none" stroke="black" points="2045.25,-121 2045.25,-143.75 2089,-143.75 2089,-121 2045.25,-121"/>
<text xml:space="preserve" text-anchor="start" x="2050.25" y="-129.25" font-family="Linux libertine" font-size="10.00">output: </text>
<polygon fill="none" stroke="black" points="2089,-121 2089,-143.75 2141.75,-143.75 2141.75,-121 2089,-121"/>
<text xml:space="preserve" text-anchor="start" x="2094" y="-129.25" font-family="Linux libertine" font-size="10.00">(1, 1568) </text>
</g>
<!-- 12&#45;&gt;13 -->
<g id="edge14" class="edge">
<title>12&#45;&gt;13</title>
<path fill="none" stroke="black" d="M1966.1,-143.75C1966.1,-143.75 1990.83,-143.75 1990.83,-143.75"/>
<polygon fill="black" stroke="black" points="1990.83,-147.25 2000.83,-143.75 1990.83,-140.25 1990.83,-147.25"/>
</g>
<!-- 14 -->
<g id="node15" class="node">
<title>14</title>
<polygon fill="#c1ffc1" stroke="none" points="2335.25,-166.5 2177.75,-166.5 2177.75,-121 2335.25,-121 2335.25,-166.5"/>
<polygon fill="none" stroke="black" points="2177.75,-121 2177.75,-166.5 2226.75,-166.5 2226.75,-121 2177.75,-121"/>
<text xml:space="preserve" text-anchor="start" x="2182.75" y="-147" font-family="Linux libertine" font-size="10.00">Unflatten</text>
<text xml:space="preserve" text-anchor="start" x="2185.75" y="-134.25" font-family="Linux libertine" font-size="10.00">depth:2</text>
<polygon fill="none" stroke="black" points="2226.75,-143.75 2226.75,-166.5 2270.5,-166.5 2270.5,-143.75 2226.75,-143.75"/>
<text xml:space="preserve" text-anchor="start" x="2236.25" y="-152" font-family="Linux libertine" font-size="10.00">input:</text>
<polygon fill="none" stroke="black" points="2270.5,-143.75 2270.5,-166.5 2335.25,-166.5 2335.25,-143.75 2270.5,-143.75"/>
<text xml:space="preserve" text-anchor="start" x="2281.5" y="-152" font-family="Linux libertine" font-size="10.00">(1, 1568) </text>
<polygon fill="none" stroke="black" points="2226.75,-121 2226.75,-143.75 2270.5,-143.75 2270.5,-121 2226.75,-121"/>
<text xml:space="preserve" text-anchor="start" x="2231.75" y="-129.25" font-family="Linux libertine" font-size="10.00">output: </text>
<polygon fill="none" stroke="black" points="2270.5,-121 2270.5,-143.75 2335.25,-143.75 2335.25,-121 2270.5,-121"/>
<text xml:space="preserve" text-anchor="start" x="2275.5" y="-129.25" font-family="Linux libertine" font-size="10.00">(1, 32, 7, 7) </text>
</g>
<!-- 13&#45;&gt;14 -->
<g id="edge15" class="edge">
<title>13&#45;&gt;14</title>
<path fill="none" stroke="black" d="M2141.49,-143.75C2141.49,-143.75 2166.28,-143.75 2166.28,-143.75"/>
<polygon fill="black" stroke="black" points="2166.28,-147.25 2176.28,-143.75 2166.28,-140.25 2166.28,-147.25"/>
</g>
<!-- 15 -->
<g id="node16" class="node">
<title>15</title>
<polygon fill="#c1ffc1" stroke="none" points="2576,-166.5 2371.25,-166.5 2371.25,-121 2576,-121 2576,-166.5"/>
<polygon fill="none" stroke="black" points="2371.25,-121 2371.25,-166.5 2457,-166.5 2457,-121 2371.25,-121"/>
<text xml:space="preserve" text-anchor="start" x="2376.25" y="-147" font-family="Linux libertine" font-size="10.00">ConvTranspose2d</text>
<text xml:space="preserve" text-anchor="start" x="2397.62" y="-134.25" font-family="Linux libertine" font-size="10.00">depth:2</text>
<polygon fill="none" stroke="black" points="2457,-143.75 2457,-166.5 2500.75,-166.5 2500.75,-143.75 2457,-143.75"/>
<text xml:space="preserve" text-anchor="start" x="2466.5" y="-152" font-family="Linux libertine" font-size="10.00">input:</text>
<polygon fill="none" stroke="black" points="2500.75,-143.75 2500.75,-166.5 2576,-166.5 2576,-143.75 2500.75,-143.75"/>
<text xml:space="preserve" text-anchor="start" x="2511" y="-152" font-family="Linux libertine" font-size="10.00">(1, 32, 7, 7) </text>
<polygon fill="none" stroke="black" points="2457,-121 2457,-143.75 2500.75,-143.75 2500.75,-121 2457,-121"/>
<text xml:space="preserve" text-anchor="start" x="2462" y="-129.25" font-family="Linux libertine" font-size="10.00">output: </text>
<polygon fill="none" stroke="black" points="2500.75,-121 2500.75,-143.75 2576,-143.75 2576,-121 2500.75,-121"/>
<text xml:space="preserve" text-anchor="start" x="2505.75" y="-129.25" font-family="Linux libertine" font-size="10.00">(1, 16, 14, 14) </text>
</g>
<!-- 14&#45;&gt;15 -->
<g id="edge16" class="edge">
<title>14&#45;&gt;15</title>
<path fill="none" stroke="black" d="M2335.19,-143.75C2335.19,-143.75 2359.91,-143.75 2359.91,-143.75"/>
<polygon fill="black" stroke="black" points="2359.91,-147.25 2369.91,-143.75 2359.91,-140.25 2359.91,-147.25"/>
</g>
<!-- 16 -->
<g id="node17" class="node">
<title>16</title>
<polygon fill="#c1ffc1" stroke="none" points="2774,-166.5 2612,-166.5 2612,-121 2774,-121 2774,-166.5"/>
<polygon fill="none" stroke="black" points="2612,-121 2612,-166.5 2655,-166.5 2655,-121 2612,-121"/>
<text xml:space="preserve" text-anchor="start" x="2621.88" y="-147" font-family="Linux libertine" font-size="10.00">ReLU</text>
<text xml:space="preserve" text-anchor="start" x="2617" y="-134.25" font-family="Linux libertine" font-size="10.00">depth:2</text>
<polygon fill="none" stroke="black" points="2655,-143.75 2655,-166.5 2698.75,-166.5 2698.75,-143.75 2655,-143.75"/>
<text xml:space="preserve" text-anchor="start" x="2664.5" y="-152" font-family="Linux libertine" font-size="10.00">input:</text>
<polygon fill="none" stroke="black" points="2698.75,-143.75 2698.75,-166.5 2774,-166.5 2774,-143.75 2698.75,-143.75"/>
<text xml:space="preserve" text-anchor="start" x="2703.75" y="-152" font-family="Linux libertine" font-size="10.00">(1, 16, 14, 14) </text>
<polygon fill="none" stroke="black" points="2655,-121 2655,-143.75 2698.75,-143.75 2698.75,-121 2655,-121"/>
<text xml:space="preserve" text-anchor="start" x="2660" y="-129.25" font-family="Linux libertine" font-size="10.00">output: </text>
<polygon fill="none" stroke="black" points="2698.75,-121 2698.75,-143.75 2774,-143.75 2774,-121 2698.75,-121"/>
<text xml:space="preserve" text-anchor="start" x="2703.75" y="-129.25" font-family="Linux libertine" font-size="10.00">(1, 16, 14, 14) </text>
</g>
<!-- 15&#45;&gt;16 -->
<g id="edge17" class="edge">
<title>15&#45;&gt;16</title>
<path fill="none" stroke="black" d="M2575.93,-143.75C2575.93,-143.75 2600.7,-143.75 2600.7,-143.75"/>
<polygon fill="black" stroke="black" points="2600.7,-147.25 2610.7,-143.75 2600.7,-140.25 2600.7,-147.25"/>
</g>
<!-- 17 -->
<g id="node18" class="node">
<title>17</title>
<polygon fill="#c1ffc1" stroke="none" points="3014.75,-166.5 2810,-166.5 2810,-121 3014.75,-121 3014.75,-166.5"/>
<polygon fill="none" stroke="black" points="2810,-121 2810,-166.5 2895.75,-166.5 2895.75,-121 2810,-121"/>
<text xml:space="preserve" text-anchor="start" x="2815" y="-147" font-family="Linux libertine" font-size="10.00">ConvTranspose2d</text>
<text xml:space="preserve" text-anchor="start" x="2836.38" y="-134.25" font-family="Linux libertine" font-size="10.00">depth:2</text>
<polygon fill="none" stroke="black" points="2895.75,-143.75 2895.75,-166.5 2939.5,-166.5 2939.5,-143.75 2895.75,-143.75"/>
<text xml:space="preserve" text-anchor="start" x="2905.25" y="-152" font-family="Linux libertine" font-size="10.00">input:</text>
<polygon fill="none" stroke="black" points="2939.5,-143.75 2939.5,-166.5 3014.75,-166.5 3014.75,-143.75 2939.5,-143.75"/>
<text xml:space="preserve" text-anchor="start" x="2944.5" y="-152" font-family="Linux libertine" font-size="10.00">(1, 16, 14, 14) </text>
<polygon fill="none" stroke="black" points="2895.75,-121 2895.75,-143.75 2939.5,-143.75 2939.5,-121 2895.75,-121"/>
<text xml:space="preserve" text-anchor="start" x="2900.75" y="-129.25" font-family="Linux libertine" font-size="10.00">output: </text>
<polygon fill="none" stroke="black" points="2939.5,-121 2939.5,-143.75 3014.75,-143.75 3014.75,-121 2939.5,-121"/>
<text xml:space="preserve" text-anchor="start" x="2947.12" y="-129.25" font-family="Linux libertine" font-size="10.00">(1, 1, 28, 28) </text>
</g>
<!-- 16&#45;&gt;17 -->
<g id="edge18" class="edge">
<title>16&#45;&gt;17</title>
<path fill="none" stroke="black" d="M2773.75,-143.75C2773.75,-143.75 2798.64,-143.75 2798.64,-143.75"/>
<polygon fill="black" stroke="black" points="2798.64,-147.25 2808.64,-143.75 2798.64,-140.25 2798.64,-147.25"/>
</g>
<!-- 18 -->
<g id="node19" class="node">
<title>18</title>
<polygon fill="#c1ffc1" stroke="none" points="3208.25,-166.5 3050.75,-166.5 3050.75,-121 3208.25,-121 3208.25,-166.5"/>
<polygon fill="none" stroke="black" points="3050.75,-121 3050.75,-166.5 3094.5,-166.5 3094.5,-121 3050.75,-121"/>
<text xml:space="preserve" text-anchor="start" x="3055.75" y="-147" font-family="Linux libertine" font-size="10.00">Sigmoid</text>
<text xml:space="preserve" text-anchor="start" x="3056.12" y="-134.25" font-family="Linux libertine" font-size="10.00">depth:2</text>
<polygon fill="none" stroke="black" points="3094.5,-143.75 3094.5,-166.5 3138.25,-166.5 3138.25,-143.75 3094.5,-143.75"/>
<text xml:space="preserve" text-anchor="start" x="3104" y="-152" font-family="Linux libertine" font-size="10.00">input:</text>
<polygon fill="none" stroke="black" points="3138.25,-143.75 3138.25,-166.5 3208.25,-166.5 3208.25,-143.75 3138.25,-143.75"/>
<text xml:space="preserve" text-anchor="start" x="3143.25" y="-152" font-family="Linux libertine" font-size="10.00">(1, 1, 28, 28) </text>
<polygon fill="none" stroke="black" points="3094.5,-121 3094.5,-143.75 3138.25,-143.75 3138.25,-121 3094.5,-121"/>
<text xml:space="preserve" text-anchor="start" x="3099.5" y="-129.25" font-family="Linux libertine" font-size="10.00">output: </text>
<polygon fill="none" stroke="black" points="3138.25,-121 3138.25,-143.75 3208.25,-143.75 3208.25,-121 3138.25,-121"/>
<text xml:space="preserve" text-anchor="start" x="3143.25" y="-129.25" font-family="Linux libertine" font-size="10.00">(1, 1, 28, 28) </text>
</g>
<!-- 17&#45;&gt;18 -->
<g id="edge19" class="edge">
<title>17&#45;&gt;18</title>
<path fill="none" stroke="black" d="M3014.58,-143.75C3014.58,-143.75 3039.4,-143.75 3039.4,-143.75"/>
<polygon fill="black" stroke="black" points="3039.4,-147.25 3049.4,-143.75 3039.4,-140.25 3039.4,-147.25"/>
</g>
<!-- 19 -->
<g id="node20" class="node">
<title>19</title>
<polygon fill="lightyellow" stroke="none" points="3379,-161.5 3244.25,-161.5 3244.25,-126 3379,-126 3379,-161.5"/>
<polygon fill="none" stroke="black" points="3244.25,-126 3244.25,-161.5 3312,-161.5 3312,-126 3244.25,-126"/>
<text xml:space="preserve" text-anchor="start" x="3249.25" y="-147" font-family="Linux libertine" font-size="10.00">output&#45;tensor</text>
<text xml:space="preserve" text-anchor="start" x="3261.62" y="-134.25" font-family="Linux libertine" font-size="10.00">depth:0</text>
<polygon fill="none" stroke="black" points="3312,-126 3312,-161.5 3379,-161.5 3379,-126 3312,-126"/>
<text xml:space="preserve" text-anchor="start" x="3317" y="-140.62" font-family="Linux libertine" font-size="10.00">(1, 1, 28, 28)</text>
</g>
<!-- 18&#45;&gt;19 -->
<g id="edge20" class="edge">
<title>18&#45;&gt;19</title>
<path fill="none" stroke="black" d="M3208.06,-143.75C3208.06,-143.75 3232.96,-143.75 3232.96,-143.75"/>
<polygon fill="black" stroke="black" points="3232.96,-147.25 3242.96,-143.75 3232.96,-140.25 3232.96,-147.25"/>
</g>
</g>
</svg>
