<?xml version="1.0" encoding="UTF-8" standalone="no"?>
<!DOCTYPE svg PUBLIC "-//W3C//DTD SVG 1.1//EN"
 "http://www.w3.org/Graphics/SVG/1.1/DTD/svg11.dtd">
<!-- Generated by graphviz version 14.0.5 (20251129.0259)
 -->
<!-- Title: Wide_and_Deep Pages: 1 -->
<svg width="3600pt" height="393pt"
 viewBox="0.00 0.00 3600.00 393.00" xmlns="http://www.w3.org/2000/svg" xmlns:xlink="http://www.w3.org/1999/xlink">
<g id="graph0" class="graph" transform="scale(2.55727 2.55727) rotate(0) translate(4 149.75)">
<title>Wide_and_Deep</title>
<polygon fill="white" stroke="none" points="-4,4 -4,-149.75 1403.75,-149.75 1403.75,4 -4,4"/>
<g id="clust1" class="cluster">
<title>cluster_2</title>
<polygon fill="none" stroke="black" stroke-dasharray="5,2" points="129,-8 129,-92 934,-92 934,-8 129,-8"/>
<text xml:space="preserve" text-anchor="middle" x="161.75" y="-76.6" font-family="Times New Roman,serif" font-size="12.00">Sequential</text>
</g>
<!-- 0 -->
<g id="node1" class="node">
<title>0</title>
<polygon fill="lightyellow" stroke="none" points="747,-140.75 646,-140.75 646,-105.25 747,-105.25 747,-140.75"/>
<polygon fill="none" stroke="black" points="646,-105.25 646,-140.75 707.75,-140.75 707.75,-105.25 646,-105.25"/>
<text xml:space="preserve" text-anchor="start" x="651" y="-126.25" font-family="Linux libertine" font-size="10.00">input&#45;tensor</text>
<text xml:space="preserve" text-anchor="start" x="660.38" y="-113.5" font-family="Linux libertine" font-size="10.00">depth:0</text>
<polygon fill="none" stroke="black" points="707.75,-105.25 707.75,-140.75 747,-140.75 747,-105.25 707.75,-105.25"/>
<text xml:space="preserve" text-anchor="start" x="712.75" y="-119.88" font-family="Linux libertine" font-size="10.00">(1, 10)</text>
</g>
<!-- 2 -->
<g id="node3" class="node">
<title>2</title>
<polygon fill="#c1ffc1" stroke="none" points="926,-145.75 797,-145.75 797,-100.25 926,-100.25 926,-145.75"/>
<polygon fill="none" stroke="black" points="797,-100.25 797,-145.75 840,-145.75 840,-100.25 797,-100.25"/>
<text xml:space="preserve" text-anchor="start" x="805" y="-126.25" font-family="Linux libertine" font-size="10.00">Linear</text>
<text xml:space="preserve" text-anchor="start" x="802" y="-113.5" font-family="Linux libertine" font-size="10.00">depth:1</text>
<polygon fill="none" stroke="black" points="840,-123 840,-145.75 883.75,-145.75 883.75,-123 840,-123"/>
<text xml:space="preserve" text-anchor="start" x="849.5" y="-131.25" font-family="Linux libertine" font-size="10.00">input:</text>
<polygon fill="none" stroke="black" points="883.75,-123 883.75,-145.75 926,-145.75 926,-123 883.75,-123"/>
<text xml:space="preserve" text-anchor="start" x="888.75" y="-131.25" font-family="Linux libertine" font-size="10.00">(1, 10) </text>
<polygon fill="none" stroke="black" points="840,-100.25 840,-123 883.75,-123 883.75,-100.25 840,-100.25"/>
<text xml:space="preserve" text-anchor="start" x="845" y="-108.5" font-family="Linux libertine" font-size="10.00">output: </text>
<polygon fill="none" stroke="black" points="883.75,-100.25 883.75,-123 926,-123 926,-100.25 883.75,-100.25"/>
<text xml:space="preserve" text-anchor="start" x="891.38" y="-108.5" font-family="Linux libertine" font-size="10.00">(1, 1) </text>
</g>
<!-- 0&#45;&gt;2 -->
<g id="edge1" class="edge">
<title>0&#45;&gt;2</title>
<path fill="none" stroke="black" d="M746.9,-123C746.9,-123 785.57,-123 785.57,-123"/>
<polygon fill="black" stroke="black" points="785.57,-126.5 795.57,-123 785.57,-119.5 785.57,-126.5"/>
</g>
<!-- 1 -->
<g id="node2" class="node">
<title>1</title>
<polygon fill="lightyellow" stroke="none" points="101,-56.75 0,-56.75 0,-21.25 101,-21.25 101,-56.75"/>
<polygon fill="none" stroke="black" points="0,-21.25 0,-56.75 61.75,-56.75 61.75,-21.25 0,-21.25"/>
<text xml:space="preserve" text-anchor="start" x="5" y="-42.25" font-family="Linux libertine" font-size="10.00">input&#45;tensor</text>
<text xml:space="preserve" text-anchor="start" x="14.38" y="-29.5" font-family="Linux libertine" font-size="10.00">depth:0</text>
<polygon fill="none" stroke="black" points="61.75,-21.25 61.75,-56.75 101,-56.75 101,-21.25 61.75,-21.25"/>
<text xml:space="preserve" text-anchor="start" x="66.75" y="-35.88" font-family="Linux libertine" font-size="10.00">(1, 10)</text>
</g>
<!-- 3 -->
<g id="node4" class="node">
<title>3</title>
<polygon fill="#c1ffc1" stroke="none" points="266,-61.75 137,-61.75 137,-16.25 266,-16.25 266,-61.75"/>
<polygon fill="none" stroke="black" points="137,-16.25 137,-61.75 180,-61.75 180,-16.25 137,-16.25"/>
<text xml:space="preserve" text-anchor="start" x="145" y="-42.25" font-family="Linux libertine" font-size="10.00">Linear</text>
<text xml:space="preserve" text-anchor="start" x="142" y="-29.5" font-family="Linux libertine" font-size="10.00">depth:2</text>
<polygon fill="none" stroke="black" points="180,-39 180,-61.75 223.75,-61.75 223.75,-39 180,-39"/>
<text xml:space="preserve" text-anchor="start" x="189.5" y="-47.25" font-family="Linux libertine" font-size="10.00">input:</text>
<polygon fill="none" stroke="black" points="223.75,-39 223.75,-61.75 266,-61.75 266,-39 223.75,-39"/>
<text xml:space="preserve" text-anchor="start" x="228.75" y="-47.25" font-family="Linux libertine" font-size="10.00">(1, 10) </text>
<polygon fill="none" stroke="black" points="180,-16.25 180,-39 223.75,-39 223.75,-16.25 180,-16.25"/>
<text xml:space="preserve" text-anchor="start" x="185" y="-24.5" font-family="Linux libertine" font-size="10.00">output: </text>
<polygon fill="none" stroke="black" points="223.75,-16.25 223.75,-39 266,-39 266,-16.25 223.75,-16.25"/>
<text xml:space="preserve" text-anchor="start" x="228.75" y="-24.5" font-family="Linux libertine" font-size="10.00">(1, 64) </text>
</g>
<!-- 1&#45;&gt;3 -->
<g id="edge3" class="edge">
<title>1&#45;&gt;3</title>
<path fill="none" stroke="black" d="M100.78,-39C100.78,-39 125.69,-39 125.69,-39"/>
<polygon fill="black" stroke="black" points="125.69,-42.5 135.69,-39 125.69,-35.5 125.69,-42.5"/>
</g>
<!-- 8 -->
<g id="node9" class="node">
<title>8</title>
<polygon fill="aliceblue" stroke="none" points="1102.25,-103.75 962,-103.75 962,-58.25 1102.25,-58.25 1102.25,-103.75"/>
<polygon fill="none" stroke="black" points="962,-58.25 962,-103.75 1005,-103.75 1005,-58.25 962,-58.25"/>
<text xml:space="preserve" text-anchor="start" x="975.62" y="-84.25" font-family="Linux libertine" font-size="10.00">add</text>
<text xml:space="preserve" text-anchor="start" x="967" y="-71.5" font-family="Linux libertine" font-size="10.00">depth:1</text>
<polygon fill="none" stroke="black" points="1005,-81 1005,-103.75 1048.75,-103.75 1048.75,-81 1005,-81"/>
<text xml:space="preserve" text-anchor="start" x="1014.5" y="-89.25" font-family="Linux libertine" font-size="10.00">input:</text>
<polygon fill="none" stroke="black" points="1048.75,-81 1048.75,-103.75 1102.25,-103.75 1102.25,-81 1048.75,-81"/>
<text xml:space="preserve" text-anchor="start" x="1053.75" y="-89.25" font-family="Linux libertine" font-size="10.00">2 x (1, 1) </text>
<polygon fill="none" stroke="black" points="1005,-58.25 1005,-81 1048.75,-81 1048.75,-58.25 1005,-58.25"/>
<text xml:space="preserve" text-anchor="start" x="1010" y="-66.5" font-family="Linux libertine" font-size="10.00">output: </text>
<polygon fill="none" stroke="black" points="1048.75,-58.25 1048.75,-81 1102.25,-81 1102.25,-58.25 1048.75,-58.25"/>
<text xml:space="preserve" text-anchor="start" x="1062" y="-66.5" font-family="Linux libertine" font-size="10.00">(1, 1) </text>
</g>
<!-- 2&#45;&gt;8 -->
<g id="edge2" class="edge">
<title>2&#45;&gt;8</title>
<path fill="none" stroke="black" d="M839.75,-100.26C839.75,-93.29 839.75,-87.42 839.75,-87.42 839.75,-87.42 950.62,-87.42 950.62,-87.42"/>
<polygon fill="black" stroke="black" points="950.62,-90.92 960.62,-87.42 950.62,-83.92 950.62,-90.92"/>
</g>
<!-- 4 -->
<g id="node5" class="node">
<title>4</title>
<polygon fill="#c1ffc1" stroke="none" points="431,-61.75 302,-61.75 302,-16.25 431,-16.25 431,-61.75"/>
<polygon fill="none" stroke="black" points="302,-16.25 302,-61.75 345,-61.75 345,-16.25 302,-16.25"/>
<text xml:space="preserve" text-anchor="start" x="311.88" y="-42.25" font-family="Linux libertine" font-size="10.00">ReLU</text>
<text xml:space="preserve" text-anchor="start" x="307" y="-29.5" font-family="Linux libertine" font-size="10.00">depth:2</text>
<polygon fill="none" stroke="black" points="345,-39 345,-61.75 388.75,-61.75 388.75,-39 345,-39"/>
<text xml:space="preserve" text-anchor="start" x="354.5" y="-47.25" font-family="Linux libertine" font-size="10.00">input:</text>
<polygon fill="none" stroke="black" points="388.75,-39 388.75,-61.75 431,-61.75 431,-39 388.75,-39"/>
<text xml:space="preserve" text-anchor="start" x="393.75" y="-47.25" font-family="Linux libertine" font-size="10.00">(1, 64) </text>
<polygon fill="none" stroke="black" points="345,-16.25 345,-39 388.75,-39 388.75,-16.25 345,-16.25"/>
<text xml:space="preserve" text-anchor="start" x="350" y="-24.5" font-family="Linux libertine" font-size="10.00">output: </text>
<polygon fill="none" stroke="black" points="388.75,-16.25 388.75,-39 431,-39 431,-16.25 388.75,-16.25"/>
<text xml:space="preserve" text-anchor="start" x="393.75" y="-24.5" font-family="Linux libertine" font-size="10.00">(1, 64) </text>
</g>
<!-- 3&#45;&gt;4 -->
<g id="edge4" class="edge">
<title>3&#45;&gt;4</title>
<path fill="none" stroke="black" d="M265.77,-39C265.77,-39 290.62,-39 290.62,-39"/>
<polygon fill="black" stroke="black" points="290.62,-42.5 300.62,-39 290.62,-35.5 290.62,-42.5"/>
</g>
<!-- 5 -->
<g id="node6" class="node">
<title>5</title>
<polygon fill="#c1ffc1" stroke="none" points="596,-61.75 467,-61.75 467,-16.25 596,-16.25 596,-61.75"/>
<polygon fill="none" stroke="black" points="467,-16.25 467,-61.75 510,-61.75 510,-16.25 467,-16.25"/>
<text xml:space="preserve" text-anchor="start" x="475" y="-42.25" font-family="Linux libertine" font-size="10.00">Linear</text>
<text xml:space="preserve" text-anchor="start" x="472" y="-29.5" font-family="Linux libertine" font-size="10.00">depth:2</text>
<polygon fill="none" stroke="black" points="510,-39 510,-61.75 553.75,-61.75 553.75,-39 510,-39"/>
<text xml:space="preserve" text-anchor="start" x="519.5" y="-47.25" font-family="Linux libertine" font-size="10.00">input:</text>
<polygon fill="none" stroke="black" points="553.75,-39 553.75,-61.75 596,-61.75 596,-39 553.75,-39"/>
<text xml:space="preserve" text-anchor="start" x="558.75" y="-47.25" font-family="Linux libertine" font-size="10.00">(1, 64) </text>
<polygon fill="none" stroke="black" points="510,-16.25 510,-39 553.75,-39 553.75,-16.25 510,-16.25"/>
<text xml:space="preserve" text-anchor="start" x="515" y="-24.5" font-family="Linux libertine" font-size="10.00">output: </text>
<polygon fill="none" stroke="black" points="553.75,-16.25 553.75,-39 596,-39 596,-16.25 553.75,-16.25"/>
<text xml:space="preserve" text-anchor="start" x="558.75" y="-24.5" font-family="Linux libertine" font-size="10.00">(1, 32) </text>
</g>
<!-- 4&#45;&gt;5 -->
<g id="edge5" class="edge">
<title>4&#45;&gt;5</title>
<path fill="none" stroke="black" d="M430.77,-39C430.77,-39 455.62,-39 455.62,-39"/>
<polygon fill="black" stroke="black" points="455.62,-42.5 465.62,-39 455.62,-35.5 455.62,-42.5"/>
</g>
<!-- 6 -->
<g id="node7" class="node">
<title>6</title>
<polygon fill="#c1ffc1" stroke="none" points="761,-61.75 632,-61.75 632,-16.25 761,-16.25 761,-61.75"/>
<polygon fill="none" stroke="black" points="632,-16.25 632,-61.75 675,-61.75 675,-16.25 632,-16.25"/>
<text xml:space="preserve" text-anchor="start" x="641.88" y="-42.25" font-family="Linux libertine" font-size="10.00">ReLU</text>
<text xml:space="preserve" text-anchor="start" x="637" y="-29.5" font-family="Linux libertine" font-size="10.00">depth:2</text>
<polygon fill="none" stroke="black" points="675,-39 675,-61.75 718.75,-61.75 718.75,-39 675,-39"/>
<text xml:space="preserve" text-anchor="start" x="684.5" y="-47.25" font-family="Linux libertine" font-size="10.00">input:</text>
<polygon fill="none" stroke="black" points="718.75,-39 718.75,-61.75 761,-61.75 761,-39 718.75,-39"/>
<text xml:space="preserve" text-anchor="start" x="723.75" y="-47.25" font-family="Linux libertine" font-size="10.00">(1, 32) </text>
<polygon fill="none" stroke="black" points="675,-16.25 675,-39 718.75,-39 718.75,-16.25 675,-16.25"/>
<text xml:space="preserve" text-anchor="start" x="680" y="-24.5" font-family="Linux libertine" font-size="10.00">output: </text>
<polygon fill="none" stroke="black" points="718.75,-16.25 718.75,-39 761,-39 761,-16.25 718.75,-16.25"/>
<text xml:space="preserve" text-anchor="start" x="723.75" y="-24.5" font-family="Linux libertine" font-size="10.00">(1, 32) </text>
</g>
<!-- 5&#45;&gt;6 -->
<g id="edge6" class="edge">
<title>5&#45;&gt;6</title>
<path fill="none" stroke="black" d="M595.77,-39C595.77,-39 620.62,-39 620.62,-39"/>
<polygon fill="black" stroke="black" points="620.62,-42.5 630.62,-39 620.62,-35.5 620.62,-42.5"/>
</g>
<!-- 7 -->
<g id="node8" class="node">
<title>7</title>
<polygon fill="#c1ffc1" stroke="none" points="926,-61.75 797,-61.75 797,-16.25 926,-16.25 926,-61.75"/>
<polygon fill="none" stroke="black" points="797,-16.25 797,-61.75 840,-61.75 840,-16.25 797,-16.25"/>
<text xml:space="preserve" text-anchor="start" x="805" y="-42.25" font-family="Linux libertine" font-size="10.00">Linear</text>
<text xml:space="preserve" text-anchor="start" x="802" y="-29.5" font-family="Linux libertine" font-size="10.00">depth:2</text>
<polygon fill="none" stroke="black" points="840,-39 840,-61.75 883.75,-61.75 883.75,-39 840,-39"/>
<text xml:space="preserve" text-anchor="start" x="849.5" y="-47.25" font-family="Linux libertine" font-size="10.00">input:</text>
<polygon fill="none" stroke="black" points="883.75,-39 883.75,-61.75 926,-61.75 926,-39 883.75,-39"/>
<text xml:space="preserve" text-anchor="start" x="888.75" y="-47.25" font-family="Linux libertine" font-size="10.00">(1, 32) </text>
<polygon fill="none" stroke="black" points="840,-16.25 840,-39 883.75,-39 883.75,-16.25 840,-16.25"/>
<text xml:space="preserve" text-anchor="start" x="845" y="-24.5" font-family="Linux libertine" font-size="10.00">output: </text>
<polygon fill="none" stroke="black" points="883.75,-16.25 883.75,-39 926,-39 926,-16.25 883.75,-16.25"/>
<text xml:space="preserve" text-anchor="start" x="891.38" y="-24.5" font-family="Linux libertine" font-size="10.00">(1, 1) </text>
</g>
<!-- 6&#45;&gt;7 -->
<g id="edge7" class="edge">
<title>6&#45;&gt;7</title>
<path fill="none" stroke="black" d="M760.77,-39C760.77,-39 785.62,-39 785.62,-39"/>
<polygon fill="black" stroke="black" points="785.62,-42.5 795.62,-39 785.62,-35.5 785.62,-42.5"/>
</g>
<!-- 7&#45;&gt;8 -->
<g id="edge8" class="edge">
<title>7&#45;&gt;8</title>
<path fill="none" stroke="black" d="M882.75,-61.74C882.75,-68.71 882.75,-74.58 882.75,-74.58 882.75,-74.58 950.73,-74.58 950.73,-74.58"/>
<polygon fill="black" stroke="black" points="950.73,-78.08 960.73,-74.58 950.73,-71.08 950.73,-78.08"/>
</g>
<!-- 9 -->
<g id="node10" class="node">
<title>9</title>
<polygon fill="aliceblue" stroke="none" points="1262,-103.75 1138.25,-103.75 1138.25,-58.25 1262,-58.25 1262,-103.75"/>
<polygon fill="none" stroke="black" points="1138.25,-58.25 1138.25,-103.75 1181.25,-103.75 1181.25,-58.25 1138.25,-58.25"/>
<text xml:space="preserve" text-anchor="start" x="1143.25" y="-84.25" font-family="Linux libertine" font-size="10.00">sigmoid</text>
<text xml:space="preserve" text-anchor="start" x="1143.25" y="-71.5" font-family="Linux libertine" font-size="10.00">depth:1</text>
<polygon fill="none" stroke="black" points="1181.25,-81 1181.25,-103.75 1225,-103.75 1225,-81 1181.25,-81"/>
<text xml:space="preserve" text-anchor="start" x="1190.75" y="-89.25" font-family="Linux libertine" font-size="10.00">input:</text>
<polygon fill="none" stroke="black" points="1225,-81 1225,-103.75 1262,-103.75 1262,-81 1225,-81"/>
<text xml:space="preserve" text-anchor="start" x="1230" y="-89.25" font-family="Linux libertine" font-size="10.00">(1, 1) </text>
<polygon fill="none" stroke="black" points="1181.25,-58.25 1181.25,-81 1225,-81 1225,-58.25 1181.25,-58.25"/>
<text xml:space="preserve" text-anchor="start" x="1186.25" y="-66.5" font-family="Linux libertine" font-size="10.00">output: </text>
<polygon fill="none" stroke="black" points="1225,-58.25 1225,-81 1262,-81 1262,-58.25 1225,-58.25"/>
<text xml:space="preserve" text-anchor="start" x="1230" y="-66.5" font-family="Linux libertine" font-size="10.00">(1, 1) </text>
</g>
<!-- 8&#45;&gt;9 -->
<g id="edge9" class="edge">
<title>8&#45;&gt;9</title>
<path fill="none" stroke="black" d="M1101.91,-81C1101.91,-81 1126.81,-81 1126.81,-81"/>
<polygon fill="black" stroke="black" points="1126.81,-84.5 1136.81,-81 1126.81,-77.5 1126.81,-84.5"/>
</g>
<!-- 10 -->
<g id="node11" class="node">
<title>10</title>
<polygon fill="lightyellow" stroke="none" points="1399.75,-98.75 1298,-98.75 1298,-63.25 1399.75,-63.25 1399.75,-98.75"/>
<polygon fill="none" stroke="black" points="1298,-63.25 1298,-98.75 1365.75,-98.75 1365.75,-63.25 1298,-63.25"/>
<text xml:space="preserve" text-anchor="start" x="1303" y="-84.25" font-family="Linux libertine" font-size="10.00">output&#45;tensor</text>
<text xml:space="preserve" text-anchor="start" x="1315.38" y="-71.5" font-family="Linux libertine" font-size="10.00">depth:0</text>
<polygon fill="none" stroke="black" points="1365.75,-63.25 1365.75,-98.75 1399.75,-98.75 1399.75,-63.25 1365.75,-63.25"/>
<text xml:space="preserve" text-anchor="start" x="1370.75" y="-77.88" font-family="Linux libertine" font-size="10.00">(1, 1)</text>
</g>
<!-- 9&#45;&gt;10 -->
<g id="edge10" class="edge">
<title>9&#45;&gt;10</title>
<path fill="none" stroke="black" d="M1261.92,-81C1261.92,-81 1286.84,-81 1286.84,-81"/>
<polygon fill="black" stroke="black" points="1286.84,-84.5 1296.84,-81 1286.84,-77.5 1286.84,-84.5"/>
</g>
</g>
</svg>
